<svg width="43" height="43" viewBox="0 0 43 43" fill="none" xmlns="http://www.w3.org/2000/svg">
<path d="M39.469 10.5177C37.3606 6.86575 34.2265 3.938 30.4632 2.10462C26.6998 0.271253 22.4762 -0.38539 18.3264 0.217732C14.1766 0.820854 10.287 2.65665 7.14952 5.49298C4.01201 8.3293 1.7675 12.0388 0.699813 16.1523C-0.367874 20.2658 -0.210777 24.5986 1.15123 28.6028C2.51324 32.607 5.01899 36.1028 8.35161 38.648C11.6842 41.1932 15.694 42.6736 19.874 42.902C24.0539 43.1303 28.2163 42.0964 31.8346 39.9309C36.6819 37.0226 40.208 32.2925 41.6392 26.7783C43.0705 21.2642 42.29 15.4163 39.469 10.5177ZM6.94495 29.9823C5.30506 27.142 4.53653 23.8659 4.73655 20.5685C4.93656 17.2711 6.09614 14.1004 8.06864 11.4574C10.0411 8.81437 12.738 6.81773 15.8181 5.71996C18.8982 4.62219 22.2233 4.47259 25.3729 5.29008C28.5225 6.10757 31.3551 7.85543 33.5125 10.3126C35.6699 12.7699 37.0553 15.826 37.4933 19.0947C37.9314 22.3635 37.4026 25.6979 35.9737 28.6763C34.5447 31.6547 32.2799 34.1434 29.4656 35.8277C25.6907 38.0814 21.1995 38.7317 16.9774 37.6358C12.7553 36.54 9.14729 33.7875 6.94495 29.9823ZM27.3987 28.896C27.3203 29.2003 27.1835 29.4863 26.9962 29.7377C26.8089 29.9892 26.5748 30.201 26.3072 30.3611C26.0397 30.5212 25.744 30.6265 25.4371 30.6708C25.1303 30.7151 24.8183 30.6977 24.519 30.6194L15.9397 28.3926C15.6404 28.3149 15.3596 28.1781 15.1133 27.99C14.867 27.8019 14.6601 27.5662 14.5042 27.2963C14.3484 27.0264 14.2468 26.7277 14.2052 26.4171C14.1636 26.1065 14.1827 25.7902 14.2616 25.4862C14.3406 25.1822 14.4776 24.8965 14.6651 24.6453C14.8525 24.3942 15.0866 24.1826 15.354 24.0225C15.6214 23.8625 15.9169 23.7572 16.2236 23.7126C16.5302 23.668 16.8421 23.6851 17.1414 23.7627L20.2273 24.5637L15.1932 15.8444C14.879 15.3003 14.7919 14.6503 14.951 14.0374C15.1101 13.4245 15.5023 12.8989 16.0414 12.5763C16.5806 12.2536 17.2224 12.1604 17.8257 12.317C18.4291 12.4736 18.9445 12.8672 19.2587 13.4113L24.2928 22.1306L25.1054 18.9942C25.1843 18.6902 25.3214 18.4045 25.5088 18.1534C25.6962 17.9022 25.9303 17.6906 26.1977 17.5306C26.4651 17.3705 26.7606 17.2652 27.0673 17.2206C27.374 17.1761 27.6859 17.1931 27.9851 17.2708C28.2844 17.3485 28.5652 17.4853 28.8115 17.6734C29.0578 17.8615 29.2647 18.0972 29.4206 18.3671C29.5764 18.637 29.678 18.9357 29.7196 19.2463C29.7613 19.5569 29.7421 19.8732 29.6632 20.1772L27.3987 28.896Z" fill="#81013A"/>
</svg>
