<svg width="59" height="58" viewBox="0 0 59 58" fill="none" xmlns="http://www.w3.org/2000/svg">
<path d="M10.4546 6.55971C6.04095 10.1675 2.81669 14.9861 1.18951 20.4062C-0.437667 25.8262 -0.394679 31.6043 1.31304 37.0098C3.02076 42.4153 6.31651 47.2053 10.7835 50.7742C15.2505 54.3431 20.6882 56.5306 26.4088 57.06C32.1295 57.5894 37.8762 56.4369 42.9223 53.7484C47.9683 51.0598 52.0871 46.9559 54.7578 41.9556C57.4285 36.9553 58.5311 31.2832 57.9262 25.6566C57.3213 20.03 55.036 14.7015 51.3594 10.3451C46.4244 4.51062 39.3461 0.835386 31.6776 0.125732C24.009 -0.583922 16.3765 1.72996 10.4546 6.55971ZM43.5021 45.7181C40.0693 48.5242 35.8656 50.2625 31.4226 50.7131C26.9796 51.1638 22.4969 50.3066 18.5413 48.25C14.5857 46.1934 11.3349 43.0298 9.20001 39.1591C7.06509 35.2884 6.14193 30.8846 6.54726 26.5045C6.9526 22.1244 8.66824 17.9647 11.4772 14.5516C14.2862 11.1384 18.0623 8.62501 22.3282 7.32923C26.594 6.03344 31.1579 6.01346 35.4427 7.27182C39.7275 8.53017 43.5408 11.0103 46.4004 14.3987C50.2288 18.9449 52.0737 24.7956 51.5304 30.6672C50.987 36.5389 48.0997 41.9517 43.5021 45.7181ZM37.6018 18.6648C38.0248 18.7032 38.4363 18.8235 38.8125 19.0187C39.1887 19.2139 39.5223 19.4801 39.7941 19.8023C40.066 20.1244 40.2707 20.496 40.3966 20.8958C40.5225 21.2955 40.5671 21.7156 40.5279 22.132L39.4237 34.0632C39.3852 34.4794 39.2638 34.8838 39.0664 35.2533C38.8691 35.6228 38.5996 35.9503 38.2734 36.2169C37.9473 36.4835 37.5707 36.6841 37.1654 36.8072C36.7601 36.9304 36.3339 36.9736 35.9111 36.9345C35.4883 36.8954 35.0773 36.7746 34.7014 36.5792C34.3256 36.3838 33.9923 36.1175 33.7206 35.7956C33.4488 35.4736 33.244 35.1023 33.1178 34.7028C32.9916 34.3033 32.9465 33.8835 32.985 33.4673L33.3822 29.1758L22.8442 37.7897C22.1866 38.3273 21.3383 38.585 20.486 38.5061C19.6336 38.4272 18.847 38.0182 18.2992 37.3691C17.7514 36.7201 17.4873 35.884 17.565 35.0449C17.6426 34.2059 18.0557 33.4325 18.7133 32.8949L29.2512 24.281L24.8898 23.8793C24.467 23.8402 24.0559 23.7194 23.6801 23.524C23.3042 23.3286 22.9709 23.0623 22.6992 22.7404C22.4275 22.4184 22.2227 22.0471 22.0965 21.6476C21.9703 21.2481 21.9252 20.8283 21.9637 20.4121C22.0022 19.9959 22.1236 19.5915 22.321 19.222C22.5183 18.8525 22.7878 18.525 23.114 18.2584C23.4402 17.9918 23.8167 17.7912 24.222 17.6681C24.6273 17.5449 25.0535 17.5017 25.4763 17.5408L37.6018 18.6648Z" fill="#81013A"/>
</svg>
