<svg width="39" height="39" viewBox="0 0 39 39" fill="none" xmlns="http://www.w3.org/2000/svg">
<path d="M17.7802 0.0327103C13.9892 0.258305 10.3679 1.60179 7.37426 3.89328C4.38057 6.18477 2.14894 9.32134 0.961574 12.9063C-0.225795 16.4914 -0.315574 20.3638 0.70359 24.034C1.72275 27.7041 3.80509 31.0072 6.68726 33.5254C9.56944 36.0437 13.122 37.664 16.8957 38.1816C20.6695 38.6991 24.4948 38.0906 27.8881 36.433C31.2814 34.7753 34.0902 32.1431 35.9593 28.869C37.8284 25.5949 38.6739 21.8261 38.3889 18.0392C38.0011 12.9631 35.6135 8.21654 31.75 4.84081C27.8864 1.46509 22.8624 -0.264069 17.7802 0.0327103ZM20.3425 34.072C17.394 34.2475 14.4459 33.5456 11.8712 32.0551C9.29638 30.5646 7.21051 28.3525 5.87732 25.6984C4.54413 23.0444 4.02351 20.0676 4.38128 17.1446C4.73905 14.2216 5.95915 11.4835 7.88729 9.27676C9.81543 7.06998 12.365 5.49356 15.2136 4.74685C18.0622 4.00014 21.0819 4.11668 23.8908 5.08173C26.6998 6.04678 29.1717 7.81699 30.9942 10.1685C32.8167 12.52 33.9077 15.3473 34.1294 18.2927C34.4224 22.2413 33.1354 26.1203 30.5507 29.0785C27.966 32.0367 24.2947 33.8326 20.3425 34.072ZM27.714 17.1625C27.9274 17.3484 28.1026 17.5738 28.2296 17.826C28.3565 18.0782 28.4327 18.3522 28.4538 18.6322C28.4749 18.9122 28.4404 19.1927 28.3524 19.4577C28.2644 19.7227 28.1245 19.967 27.9409 20.1764L22.6887 26.1876C22.5055 26.3973 22.2821 26.5683 22.0313 26.6908C21.7806 26.8133 21.5073 26.8849 21.2271 26.9016C20.947 26.9183 20.6654 26.8796 20.3985 26.7879C20.1316 26.6962 19.8846 26.5533 19.6716 26.3672C19.4586 26.181 19.2838 25.9555 19.1571 25.7033C19.0304 25.4511 18.9544 25.1773 18.9333 24.8974C18.9122 24.6175 18.9466 24.3371 19.0343 24.0722C19.1221 23.8072 19.2615 23.5629 19.4447 23.3533L21.3339 21.1911L12.2826 21.7297C11.7178 21.7634 11.1592 21.5714 10.7298 21.1962C10.3003 20.821 10.0352 20.2933 9.99275 19.729C9.95028 19.1648 10.1339 18.6103 10.5033 18.1876C10.8727 17.7648 11.3975 17.5084 11.9623 17.4748L21.0136 16.9362L18.8155 15.0173C18.6024 14.8312 18.4276 14.6056 18.3009 14.3534C18.1743 14.1012 18.0982 13.8274 18.0772 13.5475C18.0561 13.2676 18.0904 12.9872 18.1782 12.7223C18.2659 12.4573 18.4054 12.2131 18.5886 12.0034C18.7718 11.7937 18.9952 11.6227 19.2459 11.5002C19.4967 11.3777 19.77 11.3061 20.0501 11.2894C20.3303 11.2727 20.6119 11.3113 20.8788 11.403C21.1457 11.4947 21.3927 11.6377 21.6057 11.8238L27.714 17.1625Z" fill="white"/>
</svg>
