<svg width="21" height="21" viewBox="0 0 21 21" fill="none" xmlns="http://www.w3.org/2000/svg">
<path d="M10.125 0C8.12247 0 6.1649 0.593821 4.49986 1.70637C2.83481 2.81892 1.53706 4.40023 0.770724 6.25033C0.00438702 8.10043 -0.196122 10.1362 0.194554 12.1003C0.585229 14.0643 1.54954 15.8685 2.96555 17.2845C4.38156 18.7005 6.18566 19.6648 8.14971 20.0555C10.1138 20.4461 12.1496 20.2456 13.9997 19.4793C15.8498 18.7129 17.4311 17.4152 18.5436 15.7501C19.6562 14.0851 20.25 12.1275 20.25 10.125C20.247 7.4406 19.1793 4.86699 17.2812 2.96883C15.383 1.07067 12.8094 0.00297771 10.125 0ZM10.125 18C8.56748 18 7.04493 17.5381 5.74989 16.6728C4.45485 15.8075 3.44549 14.5776 2.84945 13.1386C2.25341 11.6997 2.09746 10.1163 2.40132 8.58866C2.70518 7.06106 3.4552 5.65787 4.55654 4.55653C5.65788 3.4552 7.06107 2.70517 8.58867 2.40132C10.1163 2.09746 11.6997 2.25341 13.1386 2.84945C14.5776 3.44549 15.8075 4.45485 16.6728 5.74988C17.5381 7.04492 18 8.56747 18 10.125C17.9978 12.2129 17.1674 14.2146 15.691 15.691C14.2146 17.1674 12.2129 17.9978 10.125 18ZM14.25 7.125V11.625C14.25 11.9234 14.1315 12.2095 13.9205 12.4205C13.7095 12.6315 13.4234 12.75 13.125 12.75C12.8266 12.75 12.5405 12.6315 12.3295 12.4205C12.1185 12.2095 12 11.9234 12 11.625V9.84375L7.92094 13.9237C7.7096 14.1351 7.42295 14.2538 7.12407 14.2538C6.82518 14.2538 6.53854 14.1351 6.32719 13.9237C6.11585 13.7124 5.99712 13.4258 5.99712 13.1269C5.99712 12.828 6.11585 12.5413 6.32719 12.33L10.4063 8.25H8.625C8.32664 8.25 8.04049 8.13147 7.82951 7.9205C7.61853 7.70952 7.5 7.42337 7.5 7.125C7.5 6.82663 7.61853 6.54048 7.82951 6.3295C8.04049 6.11853 8.32664 6 8.625 6H13.125C13.4234 6 13.7095 6.11853 13.9205 6.3295C14.1315 6.54048 14.25 6.82663 14.25 7.125Z" fill="#81013A"/>
</svg>
