<svg width="58" height="58" viewBox="0 0 58 58" fill="none" xmlns="http://www.w3.org/2000/svg">
<path d="M26.689 0.0491693C20.9985 0.387802 15.5627 2.40447 11.069 5.84414C6.5753 9.28382 3.22548 13.992 1.44316 19.3733C-0.339163 24.7547 -0.473927 30.5675 1.05591 36.0766C2.58574 41.5858 5.71146 46.5439 10.0378 50.324C14.3641 54.104 19.6968 56.5363 25.3614 57.3131C31.026 58.09 36.7681 57.1765 41.8617 54.6883C46.9552 52.2001 51.1714 48.2489 53.9771 43.3343C56.7828 38.4198 58.0519 32.7625 57.624 27.0781C57.0419 19.4586 53.458 12.3336 47.6586 7.26645C41.8591 2.19927 34.3177 -0.396316 26.689 0.0491693ZM30.5352 51.1444C26.1093 51.4078 21.6841 50.3542 17.8192 48.1169C13.9543 45.8796 10.8232 42.559 8.82202 38.5751C6.82082 34.5912 6.03932 30.1229 6.57636 25.7353C7.1134 21.3476 8.94485 17.2376 11.8391 13.9251C14.7334 10.6126 18.5605 8.24627 22.8364 7.1254C27.1124 6.00454 31.6451 6.17947 35.8615 7.62808C40.0779 9.07668 43.7885 11.7339 46.5241 15.2637C49.2597 18.7935 50.8975 23.0373 51.2303 27.4586C51.6701 33.3857 49.7382 39.2083 45.8583 43.6488C41.9785 48.0893 36.4678 50.785 30.5352 51.1444ZM41.6003 25.7622C41.9207 26.0411 42.1837 26.3796 42.3742 26.7581C42.5648 27.1367 42.6792 27.5479 42.7108 27.9682C42.7425 28.3885 42.6907 28.8097 42.5586 29.2074C42.4265 29.6052 42.2165 29.9718 41.9408 30.2862L34.057 39.3094C33.782 39.6242 33.4467 39.8808 33.0703 40.0647C32.6938 40.2486 32.2836 40.3561 31.8631 40.3811C31.4426 40.4061 31.0199 40.3482 30.6193 40.2105C30.2186 40.0729 29.8479 39.8583 29.5281 39.5789C29.2084 39.2996 28.946 38.9609 28.7558 38.5824C28.5657 38.2039 28.4515 37.7928 28.4199 37.3727C28.3883 36.9526 28.4398 36.5317 28.5715 36.134C28.7032 35.7363 28.9126 35.3696 29.1876 35.0548L32.0233 31.8093L18.4368 32.6178C17.5889 32.6683 16.7505 32.3802 16.1059 31.817C15.4613 31.2538 15.0633 30.4616 14.9995 29.6146C14.9358 28.7677 15.2115 27.9354 15.7659 27.3008C16.3203 26.6662 17.1081 26.2814 17.956 26.2309L31.5425 25.4224L28.243 22.542C27.9233 22.2626 27.6608 21.924 27.4707 21.5455C27.2805 21.1669 27.1664 20.7559 27.1348 20.3358C27.1031 19.9157 27.1547 19.4948 27.2864 19.0971C27.4181 18.6994 27.6274 18.3327 27.9025 18.0179C28.1775 17.7032 28.5128 17.4465 28.8892 17.2627C29.2656 17.0788 29.6758 16.9712 30.0963 16.9462C30.5169 16.9212 30.9395 16.9792 31.3402 17.1168C31.7408 17.2544 32.1116 17.4691 32.4313 17.7484L41.6003 25.7622Z" fill="white"/>
</svg>
