<svg width="20" height="21" viewBox="0 0 20 21" fill="none" xmlns="http://www.w3.org/2000/svg">
<path d="M10 0.75C8.07164 0.75 6.18657 1.32183 4.58319 2.39317C2.97982 3.46451 1.73013 4.98726 0.992179 6.76884C0.254225 8.55042 0.061142 10.5108 0.437348 12.4021C0.813554 14.2934 1.74215 16.0307 3.10571 17.3943C4.46928 18.7579 6.20656 19.6865 8.09787 20.0627C9.98919 20.4389 11.9496 20.2458 13.7312 19.5078C15.5127 18.7699 17.0355 17.5202 18.1068 15.9168C19.1782 14.3134 19.75 12.4284 19.75 10.5C19.747 7.91505 18.7188 5.43683 16.891 3.609C15.0632 1.78116 12.585 0.752977 10 0.75ZM18.2144 9.75H14.4803C14.3125 6.32719 12.9944 3.90656 11.9134 2.475C13.5918 2.87804 15.102 3.79628 16.2321 5.10095C17.3623 6.40562 18.0558 8.03129 18.2153 9.75H18.2144ZM7.02157 11.25H12.9784C12.7619 15.1509 10.8944 17.5416 10 18.4688C9.10469 17.5406 7.23813 15.15 7.02157 11.25ZM7.02157 9.75C7.23813 5.84906 9.10563 3.45844 10 2.53125C10.8953 3.46219 12.7619 5.85281 12.9784 9.75H7.02157ZM11.9134 18.525C12.9944 17.0934 14.3097 14.6728 14.4803 11.25H18.2153C18.0558 12.9687 17.3623 14.5944 16.2321 15.899C15.102 17.2037 13.5918 18.122 11.9134 18.525Z" fill="#F2F2F1"/>
</svg>
