<svg width="24" height="25" viewBox="0 0 24 25" fill="none" xmlns="http://www.w3.org/2000/svg">
<path d="M12 2.75C10.0716 2.75 8.18657 3.32183 6.58319 4.39317C4.97982 5.46451 3.73013 6.98726 2.99218 8.76884C2.25422 10.5504 2.06114 12.5108 2.43735 14.4021C2.81355 16.2934 3.74215 18.0307 5.10571 19.3943C6.46928 20.7579 8.20656 21.6865 10.0979 22.0627C11.9892 22.4389 13.9496 22.2458 15.7312 21.5078C17.5127 20.7699 19.0355 19.5202 20.1068 17.9168C21.1782 16.3134 21.75 14.4284 21.75 12.5C21.747 9.91505 20.7188 7.43683 18.891 5.609C17.0632 3.78116 14.585 2.75298 12 2.75ZM20.2144 11.75H16.4803C16.3125 8.32719 14.9944 5.90656 13.9134 4.475C15.5918 4.87804 17.102 5.79628 18.2321 7.10095C19.3623 8.40562 20.0558 10.0313 20.2153 11.75H20.2144ZM9.02157 13.25H14.9784C14.7619 17.1509 12.8944 19.5416 12 20.4688C11.1047 19.5406 9.23813 17.15 9.02157 13.25ZM9.02157 11.75C9.23813 7.84906 11.1056 5.45844 12 4.53125C12.8953 5.46219 14.7619 7.85281 14.9784 11.75H9.02157ZM13.9134 20.525C14.9944 19.0934 16.3097 16.6728 16.4803 13.25H20.2153C20.0558 14.9687 19.3623 16.5944 18.2321 17.899C17.102 19.2037 15.5918 20.122 13.9134 20.525Z" fill="#F2F2F1"/>
</svg>
