<svg width="20" height="21" viewBox="0 0 20 21" fill="none" xmlns="http://www.w3.org/2000/svg">
<path d="M10 0.75C8.07164 0.75 6.18657 1.32183 4.58319 2.39317C2.97982 3.46451 1.73013 4.98726 0.992179 6.76884C0.254225 8.55042 0.061142 10.5108 0.437348 12.4021C0.813554 14.2934 1.74215 16.0307 3.10571 17.3943C4.46928 18.7579 6.20656 19.6865 8.09787 20.0627C9.98919 20.4389 11.9496 20.2458 13.7312 19.5078C15.5127 18.7699 17.0355 17.5202 18.1068 15.9168C19.1782 14.3134 19.75 12.4284 19.75 10.5C19.7473 7.91498 18.7192 5.43661 16.8913 3.60872C15.0634 1.78084 12.585 0.75273 10 0.75ZM9.625 5.25C9.84751 5.25 10.065 5.31598 10.25 5.4396C10.435 5.56321 10.5792 5.73891 10.6644 5.94448C10.7495 6.15005 10.7718 6.37625 10.7284 6.59448C10.685 6.81271 10.5778 7.01316 10.4205 7.1705C10.2632 7.32783 10.0627 7.43498 9.84448 7.47838C9.62625 7.52179 9.40005 7.49951 9.19449 7.41436C8.98892 7.32922 8.81322 7.18502 8.6896 7.00002C8.56598 6.81501 8.5 6.5975 8.5 6.375C8.5 6.07663 8.61853 5.79048 8.82951 5.5795C9.04049 5.36853 9.32664 5.25 9.625 5.25ZM10.75 15.75C10.3522 15.75 9.97065 15.592 9.68934 15.3107C9.40804 15.0294 9.25 14.6478 9.25 14.25V10.5C9.05109 10.5 8.86033 10.421 8.71967 10.2803C8.57902 10.1397 8.5 9.94891 8.5 9.75C8.5 9.55109 8.57902 9.36032 8.71967 9.21967C8.86033 9.07902 9.05109 9 9.25 9C9.64783 9 10.0294 9.15804 10.3107 9.43934C10.592 9.72064 10.75 10.1022 10.75 10.5V14.25C10.9489 14.25 11.1397 14.329 11.2803 14.4697C11.421 14.6103 11.5 14.8011 11.5 15C11.5 15.1989 11.421 15.3897 11.2803 15.5303C11.1397 15.671 10.9489 15.75 10.75 15.75Z" fill="#F2F2F1"/>
</svg>
