<svg width="20" height="21" viewBox="0 0 20 21" fill="none" xmlns="http://www.w3.org/2000/svg">
<path d="M14.5 0.75H5.5C4.10807 0.751489 2.77358 1.30509 1.78933 2.28933C0.805091 3.27358 0.251489 4.60807 0.25 6V15C0.251489 16.3919 0.805091 17.7264 1.78933 18.7107C2.77358 19.6949 4.10807 20.2485 5.5 20.25H14.5C15.8919 20.2485 17.2264 19.6949 18.2107 18.7107C19.1949 17.7264 19.7485 16.3919 19.75 15V6C19.7485 4.60807 19.1949 3.27358 18.2107 2.28933C17.2264 1.30509 15.8919 0.751489 14.5 0.75ZM10 15C9.10998 15 8.23995 14.7361 7.49993 14.2416C6.75991 13.7471 6.18314 13.0443 5.84254 12.2221C5.50195 11.3998 5.41283 10.495 5.58647 9.62209C5.7601 8.74918 6.18868 7.94736 6.81802 7.31802C7.44736 6.68868 8.24918 6.2601 9.12209 6.08647C9.99501 5.91283 10.8998 6.00195 11.7221 6.34254C12.5443 6.68314 13.2471 7.25991 13.7416 7.99993C14.2361 8.73995 14.5 9.60998 14.5 10.5C14.4988 11.6931 14.0243 12.837 13.1806 13.6806C12.337 14.5243 11.1931 14.9988 10 15ZM15.625 6C15.4025 6 15.185 5.93402 15 5.8104C14.815 5.68679 14.6708 5.51109 14.5856 5.30552C14.5005 5.09995 14.4782 4.87375 14.5216 4.65552C14.565 4.43729 14.6722 4.23684 14.8295 4.0795C14.9868 3.92217 15.1873 3.81502 15.4055 3.77162C15.6238 3.72821 15.85 3.75049 16.0555 3.83564C16.2611 3.92078 16.4368 4.06498 16.5604 4.24998C16.684 4.43499 16.75 4.6525 16.75 4.875C16.75 5.17337 16.6315 5.45952 16.4205 5.6705C16.2095 5.88147 15.9234 6 15.625 6ZM13 10.5C13 11.0933 12.8241 11.6734 12.4944 12.1667C12.1648 12.6601 11.6962 13.0446 11.1481 13.2716C10.5999 13.4987 9.99667 13.5581 9.41473 13.4424C8.83279 13.3266 8.29824 13.0409 7.87868 12.6213C7.45912 12.2018 7.1734 11.6672 7.05764 11.0853C6.94189 10.5033 7.0013 9.90013 7.22836 9.35195C7.45542 8.80377 7.83994 8.33524 8.33329 8.00559C8.82664 7.67595 9.40666 7.5 10 7.5C10.7956 7.5 11.5587 7.81607 12.1213 8.37868C12.6839 8.94129 13 9.70435 13 10.5Z" fill="#F2F2F1"/>
</svg>
