<svg width="24" height="25" viewBox="0 0 24 25" fill="none" xmlns="http://www.w3.org/2000/svg">
<path d="M16.5 2H7.5C6.90326 2 6.33097 2.23705 5.90901 2.65901C5.48705 3.08097 5.25 3.65326 5.25 4.25V20.75C5.25 21.3467 5.48705 21.919 5.90901 22.341C6.33097 22.7629 6.90326 23 7.5 23H16.5C17.0967 23 17.669 22.7629 18.091 22.341C18.5129 21.919 18.75 21.3467 18.75 20.75V4.25C18.75 3.65326 18.5129 3.08097 18.091 2.65901C17.669 2.23705 17.0967 2 16.5 2ZM12 7.25C11.7775 7.25 11.56 7.18402 11.375 7.0604C11.19 6.93679 11.0458 6.76109 10.9606 6.55552C10.8755 6.34995 10.8532 6.12375 10.8966 5.90552C10.94 5.68729 11.0472 5.48684 11.2045 5.3295C11.3618 5.17217 11.5623 5.06502 11.7805 5.02162C11.9988 4.97821 12.225 5.00049 12.4305 5.08564C12.6361 5.17078 12.8118 5.31498 12.9354 5.49998C13.059 5.68499 13.125 5.9025 13.125 6.125C13.125 6.42337 13.0065 6.70952 12.7955 6.9205C12.5845 7.13147 12.2984 7.25 12 7.25Z" fill="#F2F2F1"/>
</svg>
