<svg width="14" height="21" viewBox="0 0 14 21" fill="none" xmlns="http://www.w3.org/2000/svg">
<path d="M11.5 0H2.5C1.90326 0 1.33097 0.237053 0.90901 0.65901C0.487053 1.08097 0.25 1.65326 0.25 2.25V18.75C0.25 19.3467 0.487053 19.919 0.90901 20.341C1.33097 20.7629 1.90326 21 2.5 21H11.5C12.0967 21 12.669 20.7629 13.091 20.341C13.5129 19.919 13.75 19.3467 13.75 18.75V2.25C13.75 1.65326 13.5129 1.08097 13.091 0.65901C12.669 0.237053 12.0967 0 11.5 0ZM7 5.25C6.7775 5.25 6.55999 5.18402 6.37498 5.0604C6.18998 4.93679 6.04578 4.76109 5.96064 4.55552C5.87549 4.34995 5.85321 4.12375 5.89662 3.90552C5.94002 3.68729 6.04717 3.48684 6.2045 3.3295C6.36184 3.17217 6.56229 3.06502 6.78052 3.02162C6.99875 2.97821 7.22495 3.00049 7.43052 3.08564C7.63609 3.17078 7.81179 3.31498 7.9354 3.49998C8.05902 3.68499 8.125 3.9025 8.125 4.125C8.125 4.42337 8.00647 4.70952 7.79549 4.9205C7.58452 5.13147 7.29837 5.25 7 5.25Z" fill="#F2F2F1"/>
</svg>
