<svg width="24" height="25" viewBox="0 0 24 25" fill="none" xmlns="http://www.w3.org/2000/svg">
<path d="M11.625 16.9063C11.7383 16.9711 11.8666 17.0051 11.9972 17.0051C12.1277 17.0051 12.256 16.9711 12.3694 16.9063C12.5991 16.7741 17.9944 13.625 17.9944 8.0047C17.9472 6.44592 17.2951 4.96673 16.176 3.88058C15.0569 2.79442 13.559 2.18665 11.9995 2.18604C10.44 2.18543 8.94151 2.79203 7.8216 3.87731C6.7017 4.96259 6.04835 6.44127 6 8.00002C6 13.625 11.3981 16.7694 11.625 16.9063ZM12 5.75002C12.445 5.75002 12.88 5.88198 13.25 6.12921C13.62 6.37644 13.9084 6.72784 14.0787 7.13898C14.249 7.55011 14.2936 8.00251 14.2068 8.43897C14.12 8.87543 13.9057 9.27634 13.591 9.59101C13.2763 9.90567 12.8754 10.12 12.439 10.2068C12.0025 10.2936 11.5501 10.249 11.139 10.0787C10.7278 9.90845 10.3764 9.62006 10.1292 9.25005C9.88196 8.88004 9.75 8.44502 9.75 8.00002C9.75 7.40328 9.98705 6.83098 10.409 6.40903C10.831 5.98707 11.4033 5.75002 12 5.75002ZM22.5 17.75C22.5 20.6731 17.0897 22.25 12 22.25C6.91031 22.25 1.5 20.6731 1.5 17.75C1.5 16.3822 2.73937 15.171 4.99031 14.3403C5.17491 14.2793 5.37596 14.2924 5.5511 14.3768C5.72624 14.4612 5.86178 14.6103 5.92913 14.7926C5.99648 14.975 5.99039 15.1764 5.91215 15.3543C5.8339 15.5323 5.6896 15.6729 5.50969 15.7466C3.96187 16.3194 3 17.0863 3 17.75C3 19.0025 6.42375 20.75 12 20.75C17.5763 20.75 21 19.0025 21 17.75C21 17.0863 20.0381 16.3194 18.4903 15.7475C18.3104 15.6739 18.1661 15.5332 18.0879 15.3553C18.0096 15.1773 18.0035 14.9759 18.0709 14.7936C18.1382 14.6112 18.2738 14.4621 18.4489 14.3777C18.624 14.2934 18.8251 14.2803 19.0097 14.3413C21.2606 15.171 22.5 16.3822 22.5 17.75Z" fill="#F2F2F1"/>
</svg>
