<svg width="22" height="21" viewBox="0 0 22 21" fill="none" xmlns="http://www.w3.org/2000/svg">
<path d="M10.625 14.9063C10.7383 14.9711 10.8666 15.0051 10.9972 15.0051C11.1277 15.0051 11.256 14.9711 11.3694 14.9063C11.5991 14.7741 16.9944 11.625 16.9944 6.0047C16.9472 4.44592 16.2951 2.96673 15.176 1.88058C14.0569 0.794421 12.559 0.186645 10.9995 0.186036C9.43997 0.185426 7.94151 0.792031 6.8216 1.87731C5.7017 2.96259 5.04835 4.44127 5 6.00002C5 11.625 10.3981 14.7694 10.625 14.9063ZM11 3.75002C11.445 3.75002 11.88 3.88198 12.25 4.12921C12.62 4.37644 12.9084 4.72784 13.0787 5.13898C13.249 5.55011 13.2936 6.00251 13.2068 6.43897C13.12 6.87543 12.9057 7.27634 12.591 7.59101C12.2763 7.90567 11.8754 8.11997 11.439 8.20678C11.0025 8.2936 10.5501 8.24904 10.139 8.07875C9.72783 7.90845 9.37643 7.62006 9.12919 7.25005C8.88196 6.88004 8.75 6.44502 8.75 6.00002C8.75 5.40328 8.98705 4.83098 9.40901 4.40903C9.83097 3.98707 10.4033 3.75002 11 3.75002ZM21.5 15.75C21.5 18.6731 16.0897 20.25 11 20.25C5.91031 20.25 0.5 18.6731 0.5 15.75C0.5 14.3822 1.73937 13.171 3.99031 12.3403C4.17491 12.2793 4.37596 12.2924 4.5511 12.3768C4.72624 12.4612 4.86178 12.6103 4.92913 12.7926C4.99648 12.975 4.99039 13.1764 4.91215 13.3543C4.8339 13.5323 4.6896 13.6729 4.50969 13.7466C2.96187 14.3194 2 15.0863 2 15.75C2 17.0025 5.42375 18.75 11 18.75C16.5763 18.75 20 17.0025 20 15.75C20 15.0863 19.0381 14.3194 17.4903 13.7475C17.3104 13.6739 17.1661 13.5332 17.0879 13.3553C17.0096 13.1773 17.0035 12.9759 17.0709 12.7936C17.1382 12.6112 17.2738 12.4621 17.4489 12.3777C17.624 12.2934 17.8251 12.2803 18.0097 12.3413C20.2606 13.171 21.5 14.3822 21.5 15.75Z" fill="#F2F2F1"/>
</svg>
