<svg width="20" height="21" viewBox="0 0 20 21" fill="none" xmlns="http://www.w3.org/2000/svg">
<path d="M10 0.75C8.07164 0.75 6.18657 1.32183 4.58319 2.39317C2.97982 3.46451 1.73013 4.98726 0.992179 6.76884C0.254225 8.55042 0.061142 10.5108 0.437348 12.4021C0.813554 14.2934 1.74215 16.0307 3.10571 17.3943C4.46928 18.7579 6.20656 19.6865 8.09787 20.0627C9.98919 20.4389 11.9496 20.2458 13.7312 19.5078C15.5127 18.7699 17.0355 17.5202 18.1068 15.9168C19.1782 14.3134 19.75 12.4284 19.75 10.5C19.7473 7.91498 18.7192 5.43661 16.8913 3.60872C15.0634 1.78084 12.585 0.75273 10 0.75ZM10 16.5C9.7775 16.5 9.55999 16.434 9.37499 16.3104C9.18998 16.1868 9.04579 16.0111 8.96064 15.8055C8.87549 15.6 8.85321 15.3738 8.89662 15.1555C8.94003 14.9373 9.04718 14.7368 9.20451 14.5795C9.36184 14.4222 9.5623 14.315 9.78053 14.2716C9.99876 14.2282 10.225 14.2505 10.4305 14.3356C10.6361 14.4208 10.8118 14.565 10.9354 14.75C11.059 14.935 11.125 15.1525 11.125 15.375C11.125 15.6734 11.0065 15.9595 10.7955 16.1705C10.5845 16.3815 10.2984 16.5 10 16.5ZM10.75 11.9325V12C10.75 12.1989 10.671 12.3897 10.5303 12.5303C10.3897 12.671 10.1989 12.75 10 12.75C9.80109 12.75 9.61033 12.671 9.46967 12.5303C9.32902 12.3897 9.25 12.1989 9.25 12V11.25C9.25 11.0511 9.32902 10.8603 9.46967 10.7197C9.61033 10.579 9.80109 10.5 10 10.5C11.2403 10.5 12.25 9.65625 12.25 8.625C12.25 7.59375 11.2403 6.75 10 6.75C8.75969 6.75 7.75 7.59375 7.75 8.625V9C7.75 9.19891 7.67099 9.38968 7.53033 9.53033C7.38968 9.67098 7.19892 9.75 7 9.75C6.80109 9.75 6.61033 9.67098 6.46967 9.53033C6.32902 9.38968 6.25 9.19891 6.25 9V8.625C6.25 6.76406 7.93188 5.25 10 5.25C12.0681 5.25 13.75 6.76406 13.75 8.625C13.75 10.2544 12.46 11.6184 10.75 11.9325Z" fill="#F2F2F1"/>
</svg>
