<svg width="23" height="23" viewBox="0 0 23 23" fill="none" xmlns="http://www.w3.org/2000/svg">
<path d="M21.5755 1.42438C21.3399 1.18867 21.0457 1.02003 20.7232 0.935826C20.4007 0.851622 20.0617 0.854898 19.7409 0.945315L19.7202 0.951877L1.72867 6.40625C1.36378 6.51209 1.03965 6.72627 0.799216 7.02044C0.558778 7.31461 0.413378 7.67487 0.382272 8.05353C0.351167 8.43218 0.435825 8.81134 0.625033 9.14081C0.81424 9.47027 1.09907 9.73448 1.4418 9.89844L9.28117 13.7188L13.0977 21.5609C13.2482 21.881 13.487 22.1514 13.7859 22.3404C14.0849 22.5294 14.4316 22.6291 14.7852 22.6278C14.8387 22.6278 14.893 22.6278 14.9474 22.6213C15.3271 22.592 15.6886 22.4469 15.9831 22.2054C16.2775 21.9639 16.4907 21.6378 16.5937 21.2713L22.048 3.27969C22.0508 3.273 22.053 3.26611 22.0546 3.25906C22.145 2.93827 22.1483 2.59918 22.0641 2.2767C21.9799 1.95422 21.8113 1.66001 21.5755 1.42438ZM14.7102 19.7253L11.488 13.1028L15.8005 8.795C15.9052 8.69036 15.9882 8.56612 16.0448 8.42939C16.1015 8.29267 16.1306 8.14612 16.1306 7.99813C16.1306 7.85013 16.1015 7.70359 16.0448 7.56686C15.9882 7.43013 15.9052 7.3059 15.8005 7.20125C15.6959 7.09661 15.5717 7.01359 15.4349 6.95696C15.2982 6.90033 15.1517 6.87118 15.0037 6.87118C14.8557 6.87118 14.7091 6.90033 14.5724 6.95696C14.4357 7.01359 14.3114 7.09661 14.2068 7.20125L9.89429 11.5138L3.27461 8.28969L19.6874 3.3125L14.7102 19.7253Z" fill="#F8F8F8"/>
</svg>
