<svg width="20" height="21" viewBox="0 0 20 21" fill="none" xmlns="http://www.w3.org/2000/svg">
<path d="M19.75 6V9.75C19.75 9.94891 19.671 10.1397 19.5303 10.2803C19.3897 10.421 19.1989 10.5 19 10.5C17.4333 10.5036 15.889 10.1269 14.5 9.40219V13.125C14.5 15.0147 13.7493 16.8269 12.4131 18.1631C11.0769 19.4993 9.26467 20.25 7.375 20.25C5.48533 20.25 3.67306 19.4993 2.33686 18.1631C1.00067 16.8269 0.25 15.0147 0.25 13.125C0.25 9.66562 2.77281 6.6075 6.11875 6.01125C6.22669 5.99206 6.33752 5.99678 6.44345 6.02505C6.54937 6.05333 6.6478 6.10449 6.73182 6.17492C6.81584 6.24535 6.88339 6.33334 6.92972 6.4327C6.97606 6.53206 7.00005 6.64037 7 6.75V10.7522C7.00005 10.8941 6.95981 11.0332 6.88397 11.1532C6.80813 11.2731 6.6998 11.3691 6.57156 11.43C6.26841 11.5738 6.00939 11.7962 5.82151 12.0742C5.63364 12.3522 5.5238 12.6755 5.50345 13.0104C5.4831 13.3453 5.55299 13.6795 5.70582 13.9782C5.85865 14.2769 6.08883 14.5291 6.37234 14.7085C6.65586 14.888 6.98232 14.988 7.31768 14.9983C7.65304 15.0085 7.98501 14.9286 8.27896 14.7668C8.57291 14.6051 8.81807 14.3674 8.98887 14.0786C9.15967 13.7898 9.24985 13.4605 9.25 13.125V0.75C9.25 0.551088 9.32902 0.360322 9.46967 0.21967C9.61032 0.0790176 9.80109 0 10 0H13.75C13.9489 0 14.1397 0.0790176 14.2803 0.21967C14.421 0.360322 14.5 0.551088 14.5 0.75C14.5012 1.94309 14.9757 3.08697 15.8194 3.93061C16.663 4.77425 17.8069 5.24876 19 5.25C19.1989 5.25 19.3897 5.32902 19.5303 5.46967C19.671 5.61032 19.75 5.80109 19.75 6Z" fill="#F2F2F1"/>
</svg>
