<svg width="24" height="16" viewBox="0 0 24 16" fill="none" xmlns="http://www.w3.org/2000/svg">
<path d="M23.1588 7.41844C23.1241 7.3425 22.3029 5.51906 20.4888 3.705C18.0616 1.28156 15.0026 0 11.6276 0C8.25257 0 5.1935 1.28156 2.76913 3.705C0.955065 5.51906 0.133815 7.3425 0.0963153 7.41844C0.0328026 7.56243 0 7.71809 0 7.87547C0 8.03285 0.0328026 8.1885 0.0963153 8.3325C0.131003 8.40938 0.952253 10.2319 2.76725 12.0459C5.1935 14.4694 8.25257 15.75 11.6276 15.75C15.0026 15.75 18.0616 14.4694 20.4851 12.0459C22.3001 10.2319 23.1213 8.40938 23.156 8.3325C23.22 8.1887 23.2532 8.03315 23.2537 7.87577C23.2542 7.71838 23.2219 7.56263 23.1588 7.41844ZM18.8407 10.5122C16.8279 12.4941 14.4016 13.5 11.6276 13.5C8.8535 13.5 6.42725 12.4941 4.41725 10.5112C3.62633 9.72865 2.94598 8.84171 2.39507 7.875C2.94614 6.90868 3.62647 6.02207 4.41725 5.23969C6.42819 3.25594 8.8535 2.25 11.6276 2.25C14.4016 2.25 16.8269 3.25594 18.8379 5.23969C19.6287 6.022 20.3091 6.90862 20.8601 7.875C20.3091 8.84165 19.6287 9.72858 18.8379 10.5112L18.8407 10.5122ZM11.6276 3.75C10.8117 3.75 10.0142 3.99193 9.33584 4.44519C8.65749 4.89845 8.12877 5.54269 7.81656 6.29643C7.50435 7.05018 7.42266 7.87958 7.58183 8.67975C7.74099 9.47992 8.13386 10.2149 8.71075 10.7918C9.28764 11.3687 10.0226 11.7616 10.8228 11.9207C11.623 12.0799 12.4524 11.9982 13.2061 11.686C13.9599 11.3738 14.6041 10.8451 15.0574 10.1667C15.5106 9.48837 15.7526 8.69085 15.7526 7.875C15.7513 6.78136 15.3163 5.73287 14.543 4.95955C13.7697 4.18624 12.7212 3.75124 11.6276 3.75ZM11.6276 9.75C11.2567 9.75 10.8942 9.64003 10.5859 9.43401C10.2775 9.22798 10.0372 8.93514 9.89529 8.59253C9.75338 8.24992 9.71625 7.87292 9.78859 7.50921C9.86094 7.14549 10.0395 6.8114 10.3017 6.54917C10.564 6.28695 10.8981 6.10837 11.2618 6.03603C11.6255 5.96368 12.0025 6.00081 12.3451 6.14273C12.6877 6.28464 12.9805 6.52496 13.1866 6.83331C13.3926 7.14165 13.5026 7.50416 13.5026 7.875C13.5026 8.37228 13.305 8.84919 12.9534 9.20082C12.6018 9.55246 12.1248 9.75 11.6276 9.75Z" fill="white"/>
</svg>
