<svg width="18" height="19" viewBox="0 0 18 19" fill="none" xmlns="http://www.w3.org/2000/svg">
<path d="M17.1566 18.1109C17.092 18.2286 16.9971 18.3267 16.8817 18.3951C16.7662 18.4636 16.6346 18.4998 16.5004 18.5H12.0004C11.8741 18.5 11.75 18.4681 11.6393 18.4073C11.5287 18.3465 11.4352 18.2587 11.3676 18.1522L7.57162 12.1869L2.05536 18.2544C1.92089 18.3988 1.7349 18.4845 1.53772 18.4927C1.34054 18.5009 1.14805 18.4311 1.002 18.2984C0.855948 18.1657 0.768097 17.9807 0.757496 17.7836C0.746894 17.5866 0.814395 17.3933 0.945365 17.2456L6.7363 10.8706L0.867552 1.65313C0.795273 1.53973 0.754811 1.40898 0.750403 1.27458C0.745996 1.14018 0.777805 1.00707 0.8425 0.889177C0.907195 0.771288 1.0024 0.672962 1.11813 0.604494C1.23387 0.536026 1.36589 0.499935 1.50036 0.5H6.00036C6.12659 0.500039 6.25077 0.531936 6.36139 0.592735C6.472 0.653535 6.56549 0.74127 6.63318 0.847813L10.4291 6.81312L15.9454 0.745625C16.0798 0.601174 16.2658 0.515547 16.463 0.507309C16.6602 0.49907 16.8527 0.568884 16.9987 0.701615C17.1448 0.834346 17.2326 1.01929 17.2432 1.21636C17.2538 1.41343 17.1863 1.60674 17.0554 1.75438L11.2644 8.12469L17.1332 17.3478C17.2051 17.4613 17.2451 17.5919 17.2493 17.7262C17.2534 17.8604 17.2214 17.9933 17.1566 18.1109Z" fill="#F2F2F1"/>
</svg>
