<svg width="387" height="266" viewBox="0 0 387 266" fill="none" xmlns="http://www.w3.org/2000/svg">
<g clip-path="url(#clip0_494_1725)">
<rect width="387" height="266" rx="20" fill="#F8C200"/>
<path d="M335.803 404.946C305.13 407.859 278.484 396.415 278.484 396.415C215.96 371.109 126.504 330.629 187.73 251.217C213.482 278.332 237.371 297.762 259.644 310.899C369.03 375.415 433.635 286.961 429.471 225.052C422.063 113.526 253.264 88.9059 170.425 147.738L128.637 105.647L102.692 168.309L125.06 191.826C117.067 202.064 109.949 213.53 103.52 225.936C42.7401 344.949 191.223 461.54 295.341 479.873C301.308 480.9 298.654 480.581 300.912 480.667C301.044 480.744 305.537 481.258 305.747 481.204L328.757 482.85L335.803 404.946ZM301.199 194.965C333.19 188.913 379.061 197.278 377.112 220.159C376.602 226.444 374.319 234.532 359.581 241.147C345.425 248.284 310.403 248.632 271.794 230.666C259.232 224.859 252.51 220.895 240.032 211.933C263.613 200.565 273.797 200.163 301.199 194.965Z" fill="#81013A"/>
<path d="M16.416 68L24.064 45.6H30.048L37.664 68H33.088L27.072 49.344H27.008L20.96 68H16.416ZM20.032 62.24L21.184 58.88H32.576L33.696 62.24H20.032ZM46.4898 68.384C44.8258 68.384 43.3644 68.032 42.1058 67.328C40.8684 66.6027 39.8978 65.6213 39.1938 64.384C38.4898 63.1253 38.1378 61.6853 38.1378 60.064C38.1378 58.4427 38.4898 57.0133 39.1938 55.776C39.9191 54.5173 40.9111 53.536 42.1698 52.832C43.4284 52.1067 44.8684 51.744 46.4898 51.744C48.5378 51.744 50.2658 52.2773 51.6738 53.344C53.0818 54.4107 53.9671 55.8827 54.3298 57.76H49.7538C49.5831 57.0133 49.1991 56.4373 48.6018 56.032C48.0044 55.6053 47.2898 55.392 46.4578 55.392C45.7111 55.392 45.0391 55.584 44.4418 55.968C43.8658 56.3307 43.4071 56.864 43.0658 57.568C42.7244 58.2507 42.5538 59.0827 42.5538 60.064C42.5538 60.7893 42.6498 61.44 42.8418 62.016C43.0338 62.5707 43.3004 63.0507 43.6418 63.456C44.0044 63.8613 44.4204 64.1707 44.8898 64.384C45.3591 64.5973 45.8818 64.704 46.4578 64.704C47.0124 64.704 47.5138 64.6187 47.9618 64.448C48.4098 64.256 48.7938 63.9893 49.1138 63.648C49.4338 63.2853 49.6471 62.8587 49.7538 62.368H54.3298C53.9671 64.2027 53.0818 65.664 51.6738 66.752C50.2658 67.84 48.5378 68.384 46.4898 68.384ZM64.3483 68.384C62.7269 68.384 61.2869 68.0427 60.0283 67.36C58.7909 66.6773 57.8203 65.7173 57.1163 64.48C56.4123 63.2427 56.0603 61.824 56.0603 60.224C56.0603 58.56 56.4016 57.0987 57.0843 55.84C57.7883 54.56 58.7589 53.5573 59.9963 52.832C61.2549 52.1067 62.7163 51.744 64.3803 51.744C65.9589 51.744 67.3456 52.0853 68.5403 52.768C69.7563 53.4507 70.6949 54.3893 71.3563 55.584C72.0389 56.7573 72.3803 58.0907 72.3803 59.584C72.3803 59.7973 72.3803 60.0427 72.3803 60.32C72.3803 60.576 72.3589 60.8427 72.3163 61.12H59.1323V58.464H67.9963C67.9323 57.4827 67.5589 56.6933 66.8763 56.096C66.2149 55.4987 65.3829 55.2 64.3803 55.2C63.6336 55.2 62.9509 55.3707 62.3323 55.712C61.7136 56.032 61.2229 56.5227 60.8603 57.184C60.4976 57.8453 60.3163 58.688 60.3163 59.712V60.64C60.3163 61.5147 60.4869 62.272 60.8283 62.912C61.1696 63.5307 61.6389 64.0107 62.2363 64.352C62.8549 64.6933 63.5483 64.864 64.3163 64.864C65.1056 64.864 65.7669 64.6933 66.3003 64.352C66.8336 63.9893 67.2389 63.5307 67.5163 62.976H71.9323C71.6123 63.9787 71.1003 64.896 70.3963 65.728C69.6923 66.5387 68.8283 67.1893 67.8043 67.68C66.7803 68.1493 65.6283 68.384 64.3483 68.384ZM81.0875 68.384C79.6795 68.384 78.4315 68.1493 77.3435 67.68C76.2555 67.2107 75.3915 66.5707 74.7515 65.76C74.1115 64.928 73.7275 63.9893 73.5995 62.944H77.9195C78.0262 63.328 78.2075 63.6907 78.4635 64.032C78.7195 64.352 79.0608 64.6187 79.4875 64.832C79.9355 65.024 80.4475 65.12 81.0235 65.12C81.5995 65.12 82.0688 65.0453 82.4315 64.896C82.7942 64.7253 83.0608 64.512 83.2315 64.256C83.4235 63.9787 83.5195 63.7013 83.5195 63.424C83.5195 62.9973 83.3808 62.6773 83.1035 62.464C82.8475 62.2293 82.4635 62.0373 81.9515 61.888C81.4608 61.7173 80.8742 61.5467 80.1915 61.376C79.5088 61.2053 78.8048 61.0133 78.0795 60.8C77.3755 60.5867 76.7248 60.32 76.1275 60C75.5302 59.6587 75.0502 59.232 74.6875 58.72C74.3248 58.1867 74.1435 57.5253 74.1435 56.736C74.1435 55.8187 74.3995 54.9867 74.9115 54.24C75.4235 53.472 76.1595 52.864 77.1195 52.416C78.1008 51.968 79.2742 51.744 80.6395 51.744C82.5382 51.744 84.0528 52.1813 85.1835 53.056C86.3355 53.9307 87.0075 55.136 87.1995 56.672H83.1355C83.0288 56.16 82.7515 55.7653 82.3035 55.488C81.8768 55.1893 81.3115 55.04 80.6075 55.04C79.8822 55.04 79.3168 55.1787 78.9115 55.456C78.5275 55.7333 78.3355 56.0747 78.3355 56.48C78.3355 56.7787 78.4635 57.0347 78.7195 57.248C78.9968 57.4613 79.3808 57.6427 79.8715 57.792C80.3622 57.9413 80.9488 58.112 81.6315 58.304C82.7835 58.5813 83.8182 58.8907 84.7355 59.232C85.6742 59.552 86.4208 60.0107 86.9755 60.608C87.5302 61.184 87.8075 62.0267 87.8075 63.136C87.8288 64.1387 87.5622 65.0347 87.0075 65.824C86.4742 66.6133 85.6955 67.2427 84.6715 67.712C83.6688 68.16 82.4742 68.384 81.0875 68.384ZM96.5725 68.384C95.1645 68.384 93.9165 68.1493 92.8285 67.68C91.7405 67.2107 90.8765 66.5707 90.2365 65.76C89.5965 64.928 89.2125 63.9893 89.0845 62.944H93.4045C93.5112 63.328 93.6925 63.6907 93.9485 64.032C94.2045 64.352 94.5458 64.6187 94.9725 64.832C95.4205 65.024 95.9325 65.12 96.5085 65.12C97.0845 65.12 97.5538 65.0453 97.9165 64.896C98.2792 64.7253 98.5458 64.512 98.7165 64.256C98.9085 63.9787 99.0045 63.7013 99.0045 63.424C99.0045 62.9973 98.8658 62.6773 98.5885 62.464C98.3325 62.2293 97.9485 62.0373 97.4365 61.888C96.9458 61.7173 96.3592 61.5467 95.6765 61.376C94.9938 61.2053 94.2898 61.0133 93.5645 60.8C92.8605 60.5867 92.2098 60.32 91.6125 60C91.0152 59.6587 90.5352 59.232 90.1725 58.72C89.8098 58.1867 89.6285 57.5253 89.6285 56.736C89.6285 55.8187 89.8845 54.9867 90.3965 54.24C90.9085 53.472 91.6445 52.864 92.6045 52.416C93.5858 51.968 94.7592 51.744 96.1245 51.744C98.0232 51.744 99.5378 52.1813 100.669 53.056C101.821 53.9307 102.493 55.136 102.685 56.672H98.6205C98.5138 56.16 98.2365 55.7653 97.7885 55.488C97.3618 55.1893 96.7965 55.04 96.0925 55.04C95.3672 55.04 94.8018 55.1787 94.3965 55.456C94.0125 55.7333 93.8205 56.0747 93.8205 56.48C93.8205 56.7787 93.9485 57.0347 94.2045 57.248C94.4818 57.4613 94.8658 57.6427 95.3565 57.792C95.8472 57.9413 96.4338 58.112 97.1165 58.304C98.2685 58.5813 99.3032 58.8907 100.221 59.232C101.159 59.552 101.906 60.0107 102.461 60.608C103.015 61.184 103.293 62.0267 103.293 63.136C103.314 64.1387 103.047 65.0347 102.493 65.824C101.959 66.6133 101.181 67.2427 100.157 67.712C99.1538 68.16 97.9592 68.384 96.5725 68.384ZM113.082 68.384C111.546 68.384 110.159 68.032 108.922 67.328C107.684 66.624 106.703 65.6427 105.978 64.384C105.274 63.1253 104.922 61.6853 104.922 60.064C104.922 58.4213 105.284 56.9813 106.01 55.744C106.735 54.4853 107.716 53.504 108.954 52.8C110.191 52.096 111.567 51.744 113.082 51.744C114.618 51.744 116.004 52.096 117.242 52.8C118.479 53.504 119.45 54.4853 120.154 55.744C120.879 56.9813 121.242 58.4213 121.242 60.064C121.242 61.7067 120.879 63.1573 120.154 64.416C119.428 65.6533 118.447 66.624 117.21 67.328C115.994 68.032 114.618 68.384 113.082 68.384ZM113.082 64.704C113.764 64.704 114.383 64.5333 114.938 64.192C115.514 63.8507 115.972 63.3387 116.314 62.656C116.676 61.952 116.858 61.088 116.858 60.064C116.858 59.04 116.676 58.1867 116.314 57.504C115.972 56.8 115.524 56.2773 114.97 55.936C114.415 55.5947 113.796 55.424 113.114 55.424C112.431 55.424 111.802 55.5947 111.226 55.936C110.65 56.2773 110.191 56.8 109.85 57.504C109.508 58.1867 109.338 59.04 109.338 60.064C109.338 61.088 109.508 61.952 109.85 62.656C110.191 63.3387 110.639 63.8507 111.194 64.192C111.77 64.5333 112.399 64.704 113.082 64.704ZM129.842 74.72V52.128H133.586L133.938 54.624H134.002C134.365 54.0693 134.802 53.5787 135.314 53.152C135.848 52.704 136.466 52.3627 137.17 52.128C137.874 51.872 138.664 51.744 139.538 51.744C141.032 51.744 142.344 52.1067 143.474 52.832C144.626 53.5573 145.522 54.5493 146.162 55.808C146.824 57.0453 147.154 58.4747 147.154 60.096C147.154 61.6747 146.824 63.0933 146.162 64.352C145.522 65.6107 144.626 66.6027 143.474 67.328C142.322 68.032 140.978 68.384 139.442 68.384C138.248 68.384 137.202 68.16 136.306 67.712C135.41 67.2427 134.696 66.6453 134.162 65.92V74.72H129.842ZM138.418 64.736C139.272 64.736 140.029 64.544 140.69 64.16C141.352 63.7547 141.864 63.2 142.226 62.496C142.589 61.792 142.77 60.992 142.77 60.096C142.77 59.1787 142.589 58.368 142.226 57.664C141.864 56.96 141.352 56.4053 140.69 56C140.029 55.5947 139.272 55.392 138.418 55.392C137.565 55.392 136.808 55.5947 136.146 56C135.485 56.4053 134.973 56.96 134.61 57.664C134.248 58.3467 134.066 59.1467 134.066 60.064C134.066 60.9813 134.248 61.792 134.61 62.496C134.973 63.2 135.485 63.7547 136.146 64.16C136.808 64.544 137.565 64.736 138.418 64.736ZM154.701 68.384C153.399 68.384 152.322 68.1707 151.469 67.744C150.615 67.3173 149.986 66.7413 149.581 66.016C149.175 65.2907 148.973 64.4907 148.973 63.616C148.973 62.6347 149.218 61.7707 149.709 61.024C150.221 60.2773 150.989 59.7013 152.013 59.296C153.037 58.8693 154.327 58.656 155.885 58.656H159.885C159.885 57.8667 159.767 57.2267 159.533 56.736C159.319 56.224 158.978 55.84 158.509 55.584C158.061 55.328 157.485 55.2 156.781 55.2C155.949 55.2 155.234 55.392 154.637 55.776C154.061 56.1387 153.698 56.704 153.549 57.472H149.357C149.485 56.2987 149.869 55.2853 150.509 54.432C151.17 53.5787 152.045 52.9173 153.133 52.448C154.221 51.9787 155.437 51.744 156.781 51.744C158.317 51.744 159.639 52 160.749 52.512C161.858 53.0027 162.711 53.7387 163.309 54.72C163.906 55.68 164.205 56.8533 164.205 58.24V68H160.589L160.109 65.536H160.045C159.767 65.984 159.447 66.3893 159.085 66.752C158.722 67.0933 158.317 67.392 157.869 67.648C157.442 67.8827 156.962 68.064 156.429 68.192C155.895 68.32 155.319 68.384 154.701 68.384ZM155.917 65.056C156.493 65.056 157.005 64.96 157.453 64.768C157.901 64.5547 158.274 64.2773 158.573 63.936C158.893 63.5947 159.138 63.2 159.309 62.752C159.501 62.2827 159.629 61.8027 159.693 61.312H156.365C155.703 61.312 155.159 61.3973 154.733 61.568C154.327 61.7173 154.029 61.9413 153.837 62.24C153.645 62.5173 153.549 62.848 153.549 63.232C153.549 63.616 153.645 63.9467 153.837 64.224C154.029 64.5013 154.306 64.7147 154.669 64.864C155.031 64.992 155.447 65.056 155.917 65.056ZM166.685 68V52.128H170.461L170.845 55.36H170.909C171.336 54.464 171.827 53.7493 172.381 53.216C172.957 52.6827 173.608 52.3093 174.333 52.096C175.059 51.8613 175.869 51.744 176.765 51.744V56.32H175.581C174.877 56.32 174.237 56.3947 173.661 56.544C173.107 56.6933 172.627 56.9493 172.221 57.312C171.837 57.6533 171.539 58.112 171.325 58.688C171.112 59.264 171.005 59.9787 171.005 60.832V68H166.685ZM183.546 68.384C182.244 68.384 181.167 68.1707 180.314 67.744C179.46 67.3173 178.831 66.7413 178.426 66.016C178.02 65.2907 177.818 64.4907 177.818 63.616C177.818 62.6347 178.063 61.7707 178.554 61.024C179.066 60.2773 179.834 59.7013 180.858 59.296C181.882 58.8693 183.172 58.656 184.73 58.656H188.73C188.73 57.8667 188.612 57.2267 188.378 56.736C188.164 56.224 187.823 55.84 187.354 55.584C186.906 55.328 186.33 55.2 185.626 55.2C184.794 55.2 184.079 55.392 183.482 55.776C182.906 56.1387 182.543 56.704 182.394 57.472H178.202C178.33 56.2987 178.714 55.2853 179.354 54.432C180.015 53.5787 180.89 52.9173 181.978 52.448C183.066 51.9787 184.282 51.744 185.626 51.744C187.162 51.744 188.484 52 189.594 52.512C190.703 53.0027 191.556 53.7387 192.154 54.72C192.751 55.68 193.05 56.8533 193.05 58.24V68H189.434L188.954 65.536H188.89C188.612 65.984 188.292 66.3893 187.93 66.752C187.567 67.0933 187.162 67.392 186.714 67.648C186.287 67.8827 185.807 68.064 185.274 68.192C184.74 68.32 184.164 68.384 183.546 68.384ZM184.762 65.056C185.338 65.056 185.85 64.96 186.298 64.768C186.746 64.5547 187.119 64.2773 187.418 63.936C187.738 63.5947 187.983 63.2 188.154 62.752C188.346 62.2827 188.474 61.8027 188.538 61.312H185.21C184.548 61.312 184.004 61.3973 183.578 61.568C183.172 61.7173 182.874 61.9413 182.682 62.24C182.49 62.5173 182.394 62.848 182.394 63.232C182.394 63.616 182.49 63.9467 182.682 64.224C182.874 64.5013 183.151 64.7147 183.514 64.864C183.876 64.992 184.292 65.056 184.762 65.056ZM209.06 68C207.929 68 206.937 67.8293 206.084 67.488C205.252 67.1253 204.601 66.5387 204.132 65.728C203.662 64.896 203.428 63.7653 203.428 62.336V55.648H200.708V52.128H203.428L203.908 47.808H207.748V52.128H211.972V55.648H207.748V62.4C207.748 63.1467 207.908 63.6693 208.228 63.968C208.548 64.2453 209.092 64.384 209.86 64.384H211.876V68H209.06ZM221.055 68.384C219.519 68.384 218.133 68.032 216.895 67.328C215.658 66.624 214.677 65.6427 213.951 64.384C213.247 63.1253 212.895 61.6853 212.895 60.064C212.895 58.4213 213.258 56.9813 213.983 55.744C214.709 54.4853 215.69 53.504 216.927 52.8C218.165 52.096 219.541 51.744 221.055 51.744C222.591 51.744 223.978 52.096 225.215 52.8C226.453 53.504 227.423 54.4853 228.127 55.744C228.853 56.9813 229.215 58.4213 229.215 60.064C229.215 61.7067 228.853 63.1573 228.127 64.416C227.402 65.6533 226.421 66.624 225.183 67.328C223.967 68.032 222.591 68.384 221.055 68.384ZM221.055 64.704C221.738 64.704 222.357 64.5333 222.911 64.192C223.487 63.8507 223.946 63.3387 224.287 62.656C224.65 61.952 224.831 61.088 224.831 60.064C224.831 59.04 224.65 58.1867 224.287 57.504C223.946 56.8 223.498 56.2773 222.943 55.936C222.389 55.5947 221.77 55.424 221.087 55.424C220.405 55.424 219.775 55.5947 219.199 55.936C218.623 56.2773 218.165 56.8 217.823 57.504C217.482 58.1867 217.311 59.04 217.311 60.064C217.311 61.088 217.482 61.952 217.823 62.656C218.165 63.3387 218.613 63.8507 219.167 64.192C219.743 64.5333 220.373 64.704 221.055 64.704ZM238.559 68.384C237.065 68.384 235.743 68.0213 234.591 67.296C233.46 66.5707 232.564 65.5787 231.903 64.32C231.263 63.0613 230.943 61.632 230.943 60.032C230.943 58.4533 231.263 57.0347 231.903 55.776C232.564 54.5173 233.471 53.536 234.623 52.832C235.796 52.1067 237.14 51.744 238.655 51.744C239.849 51.744 240.895 51.9787 241.791 52.448C242.687 52.896 243.401 53.4827 243.935 54.208V45.28H248.255V68H244.511L244.159 65.504H244.095C243.732 66.0587 243.284 66.56 242.751 67.008C242.239 67.4347 241.631 67.7653 240.927 68C240.244 68.256 239.455 68.384 238.559 68.384ZM239.679 64.736C240.532 64.736 241.289 64.5333 241.951 64.128C242.612 63.7227 243.124 63.168 243.487 62.464C243.849 61.76 244.031 60.9493 244.031 60.032C244.031 59.136 243.849 58.336 243.487 57.632C243.124 56.928 242.612 56.384 241.951 56C241.289 55.5947 240.521 55.392 239.647 55.392C238.815 55.392 238.068 55.5947 237.407 56C236.745 56.384 236.233 56.928 235.871 57.632C235.508 58.336 235.327 59.136 235.327 60.032C235.327 60.9493 235.508 61.76 235.871 62.464C236.233 63.168 236.745 63.7227 237.407 64.128C238.068 64.5333 238.825 64.736 239.679 64.736ZM258.713 68.384C257.177 68.384 255.79 68.032 254.553 67.328C253.315 66.624 252.334 65.6427 251.609 64.384C250.905 63.1253 250.553 61.6853 250.553 60.064C250.553 58.4213 250.915 56.9813 251.641 55.744C252.366 54.4853 253.347 53.504 254.585 52.8C255.822 52.096 257.198 51.744 258.713 51.744C260.249 51.744 261.635 52.096 262.873 52.8C264.11 53.504 265.081 54.4853 265.785 55.744C266.51 56.9813 266.873 58.4213 266.873 60.064C266.873 61.7067 266.51 63.1573 265.785 64.416C265.059 65.6533 264.078 66.624 262.841 67.328C261.625 68.032 260.249 68.384 258.713 68.384ZM258.713 64.704C259.395 64.704 260.014 64.5333 260.569 64.192C261.145 63.8507 261.603 63.3387 261.945 62.656C262.307 61.952 262.489 61.088 262.489 60.064C262.489 59.04 262.307 58.1867 261.945 57.504C261.603 56.8 261.155 56.2773 260.601 55.936C260.046 55.5947 259.427 55.424 258.745 55.424C258.062 55.424 257.433 55.5947 256.857 55.936C256.281 56.2773 255.822 56.8 255.481 57.504C255.139 58.1867 254.969 59.04 254.969 60.064C254.969 61.088 255.139 61.952 255.481 62.656C255.822 63.3387 256.27 63.8507 256.825 64.192C257.401 64.5333 258.03 64.704 258.713 64.704ZM275.736 68.384C274.328 68.384 273.08 68.1493 271.992 67.68C270.904 67.2107 270.04 66.5707 269.4 65.76C268.76 64.928 268.376 63.9893 268.248 62.944H272.568C272.675 63.328 272.856 63.6907 273.112 64.032C273.368 64.352 273.71 64.6187 274.136 64.832C274.584 65.024 275.096 65.12 275.672 65.12C276.248 65.12 276.718 65.0453 277.08 64.896C277.443 64.7253 277.71 64.512 277.88 64.256C278.072 63.9787 278.168 63.7013 278.168 63.424C278.168 62.9973 278.03 62.6773 277.752 62.464C277.496 62.2293 277.112 62.0373 276.6 61.888C276.11 61.7173 275.523 61.5467 274.84 61.376C274.158 61.2053 273.454 61.0133 272.728 60.8C272.024 60.5867 271.374 60.32 270.776 60C270.179 59.6587 269.699 59.232 269.336 58.72C268.974 58.1867 268.792 57.5253 268.792 56.736C268.792 55.8187 269.048 54.9867 269.56 54.24C270.072 53.472 270.808 52.864 271.768 52.416C272.75 51.968 273.923 51.744 275.288 51.744C277.187 51.744 278.702 52.1813 279.832 53.056C280.984 53.9307 281.656 55.136 281.848 56.672H277.784C277.678 56.16 277.4 55.7653 276.952 55.488C276.526 55.1893 275.96 55.04 275.256 55.04C274.531 55.04 273.966 55.1787 273.56 55.456C273.176 55.7333 272.984 56.0747 272.984 56.48C272.984 56.7787 273.112 57.0347 273.368 57.248C273.646 57.4613 274.03 57.6427 274.52 57.792C275.011 57.9413 275.598 58.112 276.28 58.304C277.432 58.5813 278.467 58.8907 279.384 59.232C280.323 59.552 281.07 60.0107 281.624 60.608C282.179 61.184 282.456 62.0267 282.456 63.136C282.478 64.1387 282.211 65.0347 281.656 65.824C281.123 66.6133 280.344 67.2427 279.32 67.712C278.318 68.16 277.123 68.384 275.736 68.384Z" fill="#81013A"/>
</g>
<defs>
<clipPath id="clip0_494_1725">
<rect width="387" height="266" rx="20" fill="white"/>
</clipPath>
</defs>
</svg>
