<svg width="387" height="266" viewBox="0 0 387 266" fill="none" xmlns="http://www.w3.org/2000/svg">
<g clip-path="url(#clip0_494_1726)">
<rect width="387" height="266" rx="20" fill="#A1D54A"/>
<path d="M16.416 68L24.064 45.6H30.048L37.664 68H33.088L27.072 49.344H27.008L20.96 68H16.416ZM20.032 62.24L21.184 58.88H32.576L33.696 62.24H20.032ZM39.149 68V52.128H42.957L43.309 54.528H43.373C43.885 53.632 44.5677 52.9493 45.421 52.48C46.2743 51.9893 47.2663 51.744 48.397 51.744C49.2077 51.744 49.933 51.8507 50.573 52.064C51.2343 52.2773 51.821 52.608 52.333 53.056C52.845 53.4827 53.2717 54.0373 53.613 54.72H53.677C54.2743 53.7813 55.0317 53.056 55.949 52.544C56.8877 52.0107 57.9863 51.744 59.245 51.744C60.5463 51.744 61.6557 52.032 62.573 52.608C63.5117 53.1627 64.2263 53.984 64.717 55.072C65.2077 56.16 65.453 57.504 65.453 59.104V68H61.165V59.488C61.165 58.1653 60.909 57.152 60.397 56.448C59.885 55.744 59.085 55.392 57.997 55.392C57.293 55.392 56.6743 55.5627 56.141 55.904C55.6077 56.224 55.1917 56.704 54.893 57.344C54.6157 57.9627 54.477 58.7307 54.477 59.648V68H50.157V59.488C50.157 58.1653 49.901 57.152 49.389 56.448C48.877 55.744 48.077 55.392 46.989 55.392C46.3277 55.392 45.7303 55.5733 45.197 55.936C44.6637 56.2773 44.237 56.7787 43.917 57.44C43.6183 58.08 43.469 58.8693 43.469 59.808V68H39.149ZM75.6265 68.384C74.0905 68.384 72.7038 68.032 71.4665 67.328C70.2292 66.624 69.2478 65.6427 68.5225 64.384C67.8185 63.1253 67.4665 61.6853 67.4665 60.064C67.4665 58.4213 67.8292 56.9813 68.5545 55.744C69.2798 54.4853 70.2612 53.504 71.4985 52.8C72.7358 52.096 74.1118 51.744 75.6265 51.744C77.1625 51.744 78.5492 52.096 79.7865 52.8C81.0238 53.504 81.9945 54.4853 82.6985 55.744C83.4238 56.9813 83.7865 58.4213 83.7865 60.064C83.7865 61.7067 83.4238 63.1573 82.6985 64.416C81.9732 65.6533 80.9918 66.624 79.7545 67.328C78.5385 68.032 77.1625 68.384 75.6265 68.384ZM75.6265 64.704C76.3092 64.704 76.9278 64.5333 77.4825 64.192C78.0585 63.8507 78.5172 63.3387 78.8585 62.656C79.2212 61.952 79.4025 61.088 79.4025 60.064C79.4025 59.04 79.2212 58.1867 78.8585 57.504C78.5172 56.8 78.0692 56.2773 77.5145 55.936C76.9598 55.5947 76.3412 55.424 75.6585 55.424C74.9758 55.424 74.3465 55.5947 73.7705 55.936C73.1945 56.2773 72.7358 56.8 72.3945 57.504C72.0532 58.1867 71.8825 59.04 71.8825 60.064C71.8825 61.088 72.0532 61.952 72.3945 62.656C72.7358 63.3387 73.1838 63.8507 73.7385 64.192C74.3145 64.5333 74.9438 64.704 75.6265 64.704ZM85.994 68V52.128H89.77L90.154 55.36H90.218C90.6447 54.464 91.1353 53.7493 91.69 53.216C92.266 52.6827 92.9167 52.3093 93.642 52.096C94.3673 51.8613 95.178 51.744 96.074 51.744V56.32H94.89C94.186 56.32 93.546 56.3947 92.97 56.544C92.4153 56.6933 91.9353 56.9493 91.53 57.312C91.146 57.6533 90.8473 58.112 90.634 58.688C90.4207 59.264 90.314 59.9787 90.314 60.832V68H85.994ZM103.904 74.72V52.128H107.648L108 54.624H108.064C108.426 54.0693 108.864 53.5787 109.376 53.152C109.909 52.704 110.528 52.3627 111.232 52.128C111.936 51.872 112.725 51.744 113.6 51.744C115.093 51.744 116.405 52.1067 117.536 52.832C118.688 53.5573 119.584 54.5493 120.224 55.808C120.885 57.0453 121.216 58.4747 121.216 60.096C121.216 61.6747 120.885 63.0933 120.224 64.352C119.584 65.6107 118.688 66.6027 117.536 67.328C116.384 68.032 115.04 68.384 113.504 68.384C112.309 68.384 111.264 68.16 110.368 67.712C109.472 67.2427 108.757 66.6453 108.224 65.92V74.72H103.904ZM112.48 64.736C113.333 64.736 114.09 64.544 114.752 64.16C115.413 63.7547 115.925 63.2 116.288 62.496C116.65 61.792 116.832 60.992 116.832 60.096C116.832 59.1787 116.65 58.368 116.288 57.664C115.925 56.96 115.413 56.4053 114.752 56C114.09 55.5947 113.333 55.392 112.48 55.392C111.626 55.392 110.869 55.5947 110.208 56C109.546 56.4053 109.034 56.96 108.672 57.664C108.309 58.3467 108.128 59.1467 108.128 60.064C108.128 60.9813 108.309 61.792 108.672 62.496C109.034 63.2 109.546 63.7547 110.208 64.16C110.869 64.544 111.626 64.736 112.48 64.736ZM131.226 68.384C129.604 68.384 128.164 68.0427 126.906 67.36C125.668 66.6773 124.698 65.7173 123.994 64.48C123.29 63.2427 122.938 61.824 122.938 60.224C122.938 58.56 123.279 57.0987 123.962 55.84C124.666 54.56 125.636 53.5573 126.874 52.832C128.132 52.1067 129.594 51.744 131.258 51.744C132.836 51.744 134.223 52.0853 135.418 52.768C136.634 53.4507 137.572 54.3893 138.234 55.584C138.916 56.7573 139.258 58.0907 139.258 59.584C139.258 59.7973 139.258 60.0427 139.258 60.32C139.258 60.576 139.236 60.8427 139.194 61.12H126.01V58.464H134.874C134.81 57.4827 134.436 56.6933 133.754 56.096C133.092 55.4987 132.26 55.2 131.258 55.2C130.511 55.2 129.828 55.3707 129.21 55.712C128.591 56.032 128.1 56.5227 127.738 57.184C127.375 57.8453 127.194 58.688 127.194 59.712V60.64C127.194 61.5147 127.364 62.272 127.706 62.912C128.047 63.5307 128.516 64.0107 129.114 64.352C129.732 64.6933 130.426 64.864 131.194 64.864C131.983 64.864 132.644 64.6933 133.178 64.352C133.711 63.9893 134.116 63.5307 134.394 62.976H138.81C138.49 63.9787 137.978 64.896 137.274 65.728C136.57 66.5387 135.706 67.1893 134.682 67.68C133.658 68.1493 132.506 68.384 131.226 68.384ZM141.405 68V45.28H145.725V68H141.405ZM153.857 68.384C152.555 68.384 151.478 68.1707 150.625 67.744C149.771 67.3173 149.142 66.7413 148.737 66.016C148.331 65.2907 148.129 64.4907 148.129 63.616C148.129 62.6347 148.374 61.7707 148.865 61.024C149.377 60.2773 150.145 59.7013 151.169 59.296C152.193 58.8693 153.483 58.656 155.041 58.656H159.041C159.041 57.8667 158.923 57.2267 158.689 56.736C158.475 56.224 158.134 55.84 157.665 55.584C157.217 55.328 156.641 55.2 155.937 55.2C155.105 55.2 154.39 55.392 153.793 55.776C153.217 56.1387 152.854 56.704 152.705 57.472H148.513C148.641 56.2987 149.025 55.2853 149.665 54.432C150.326 53.5787 151.201 52.9173 152.289 52.448C153.377 51.9787 154.593 51.744 155.937 51.744C157.473 51.744 158.795 52 159.905 52.512C161.014 53.0027 161.867 53.7387 162.465 54.72C163.062 55.68 163.361 56.8533 163.361 58.24V68H159.745L159.265 65.536H159.201C158.923 65.984 158.603 66.3893 158.241 66.752C157.878 67.0933 157.473 67.392 157.025 67.648C156.598 67.8827 156.118 68.064 155.585 68.192C155.051 68.32 154.475 68.384 153.857 68.384ZM155.073 65.056C155.649 65.056 156.161 64.96 156.609 64.768C157.057 64.5547 157.43 64.2773 157.729 63.936C158.049 63.5947 158.294 63.2 158.465 62.752C158.657 62.2827 158.785 61.8027 158.849 61.312H155.521C154.859 61.312 154.315 61.3973 153.889 61.568C153.483 61.7173 153.185 61.9413 152.993 62.24C152.801 62.5173 152.705 62.848 152.705 63.232C152.705 63.616 152.801 63.9467 152.993 64.224C153.185 64.5013 153.462 64.7147 153.825 64.864C154.187 64.992 154.603 65.056 155.073 65.056ZM172.235 68V45.28H176.555V68H172.235ZM187.151 68.384C185.529 68.384 184.089 68.0427 182.831 67.36C181.593 66.6773 180.623 65.7173 179.919 64.48C179.215 63.2427 178.863 61.824 178.863 60.224C178.863 58.56 179.204 57.0987 179.887 55.84C180.591 54.56 181.561 53.5573 182.799 52.832C184.057 52.1067 185.519 51.744 187.183 51.744C188.761 51.744 190.148 52.0853 191.343 52.768C192.559 53.4507 193.497 54.3893 194.159 55.584C194.841 56.7573 195.183 58.0907 195.183 59.584C195.183 59.7973 195.183 60.0427 195.183 60.32C195.183 60.576 195.161 60.8427 195.119 61.12H181.935V58.464H190.799C190.735 57.4827 190.361 56.6933 189.679 56.096C189.017 55.4987 188.185 55.2 187.183 55.2C186.436 55.2 185.753 55.3707 185.135 55.712C184.516 56.032 184.025 56.5227 183.663 57.184C183.3 57.8453 183.119 58.688 183.119 59.712V60.64C183.119 61.5147 183.289 62.272 183.631 62.912C183.972 63.5307 184.441 64.0107 185.039 64.352C185.657 64.6933 186.351 64.864 187.119 64.864C187.908 64.864 188.569 64.6933 189.103 64.352C189.636 63.9893 190.041 63.5307 190.319 62.976H194.735C194.415 63.9787 193.903 64.896 193.199 65.728C192.495 66.5387 191.631 67.1893 190.607 67.68C189.583 68.1493 188.431 68.384 187.151 68.384ZM197.554 68V52.128H201.874V68H197.554ZM199.73 49.984C198.941 49.984 198.301 49.7493 197.81 49.28C197.319 48.8107 197.074 48.224 197.074 47.52C197.074 46.816 197.319 46.24 197.81 45.792C198.301 45.3227 198.941 45.088 199.73 45.088C200.519 45.088 201.159 45.3227 201.65 45.792C202.162 46.24 202.418 46.816 202.418 47.52C202.418 48.224 202.162 48.8107 201.65 49.28C201.159 49.7493 200.519 49.984 199.73 49.984ZM212.138 68C211.008 68 210.016 67.8293 209.162 67.488C208.33 67.1253 207.68 66.5387 207.21 65.728C206.741 64.896 206.506 63.7653 206.506 62.336V55.648H203.786V52.128H206.506L206.986 47.808H210.826V52.128H215.05V55.648H210.826V62.4C210.826 63.1467 210.986 63.6693 211.306 63.968C211.626 64.2453 212.17 64.384 212.938 64.384H214.954V68H212.138ZM222.844 68.384C221.543 68.384 220.423 68.1067 219.484 67.552C218.567 66.9973 217.863 66.176 217.372 65.088C216.903 63.9787 216.668 62.624 216.668 61.024V52.128H220.956V60.64C220.956 61.9627 221.223 62.976 221.756 63.68C222.29 64.384 223.143 64.736 224.316 64.736C225.042 64.736 225.692 64.5653 226.268 64.224C226.844 63.8613 227.292 63.36 227.612 62.72C227.932 62.0587 228.092 61.2587 228.092 60.32V52.128H232.412V68H228.668L228.316 65.408H228.252C227.762 66.304 227.058 67.0293 226.14 67.584C225.244 68.1173 224.146 68.384 222.844 68.384ZM235.095 68V52.128H238.871L239.255 55.36H239.319C239.746 54.464 240.237 53.7493 240.791 53.216C241.367 52.6827 242.018 52.3093 242.743 52.096C243.469 51.8613 244.279 51.744 245.175 51.744V56.32H243.991C243.287 56.32 242.647 56.3947 242.071 56.544C241.517 56.6933 241.037 56.9493 240.631 57.312C240.247 57.6533 239.949 58.112 239.735 58.688C239.522 59.264 239.415 59.9787 239.415 60.832V68H235.095ZM251.955 68.384C250.654 68.384 249.577 68.1707 248.723 67.744C247.87 67.3173 247.241 66.7413 246.835 66.016C246.43 65.2907 246.227 64.4907 246.227 63.616C246.227 62.6347 246.473 61.7707 246.963 61.024C247.475 60.2773 248.243 59.7013 249.267 59.296C250.291 58.8693 251.582 58.656 253.139 58.656H257.139C257.139 57.8667 257.022 57.2267 256.787 56.736C256.574 56.224 256.233 55.84 255.763 55.584C255.315 55.328 254.739 55.2 254.035 55.2C253.203 55.2 252.489 55.392 251.891 55.776C251.315 56.1387 250.953 56.704 250.803 57.472H246.611C246.739 56.2987 247.123 55.2853 247.763 54.432C248.425 53.5787 249.299 52.9173 250.387 52.448C251.475 51.9787 252.691 51.744 254.035 51.744C255.571 51.744 256.894 52 258.003 52.512C259.113 53.0027 259.966 53.7387 260.563 54.72C261.161 55.68 261.459 56.8533 261.459 58.24V68H257.843L257.363 65.536H257.299C257.022 65.984 256.702 66.3893 256.339 66.752C255.977 67.0933 255.571 67.392 255.123 67.648C254.697 67.8827 254.217 68.064 253.683 68.192C253.15 68.32 252.574 68.384 251.955 68.384ZM253.171 65.056C253.747 65.056 254.259 64.96 254.707 64.768C255.155 64.5547 255.529 64.2773 255.827 63.936C256.147 63.5947 256.393 63.2 256.563 62.752C256.755 62.2827 256.883 61.8027 256.947 61.312H253.619C252.958 61.312 252.414 61.3973 251.987 61.568C251.582 61.7173 251.283 61.9413 251.091 62.24C250.899 62.5173 250.803 62.848 250.803 63.232C250.803 63.616 250.899 63.9467 251.091 64.224C251.283 64.5013 251.561 64.7147 251.923 64.864C252.286 64.992 252.702 65.056 253.171 65.056Z" fill="#F78520"/>
<path d="M439.092 60.4677L441.449 144.214C441.449 144.214 368.442 133.77 294.769 178.815C347.365 197.883 393.399 243.981 396.276 294.375L470.75 278.072L489.602 364.192L48.9499 460.649L30.0986 374.53L176.189 342.551C165.437 326.124 157.798 307.187 154.942 286.539C153.96 279.774 151.974 252.453 154.376 245.944C84.1783 228.569 3.43934 267.184 3.43934 267.184L-31.3202 177.566L16.3679 162.806L16.4026 162.965C16.4026 162.965 17.0031 162.667 17.3207 162.598C63.6935 150.951 128.034 143.848 197.146 153.981C299.29 42.8723 439.092 60.4677 439.092 60.4677ZM254.465 312.453C268.437 325.35 300.835 327.399 307.785 300.615C315.917 268.587 259.635 234.205 223.57 232.128C221.325 249.239 239.263 298.496 254.465 312.453Z" fill="#F78520"/>
</g>
<defs>
<clipPath id="clip0_494_1726">
<rect width="387" height="266" rx="20" fill="white"/>
</clipPath>
</defs>
</svg>
