<svg width="387" height="266" viewBox="0 0 387 266" fill="none" xmlns="http://www.w3.org/2000/svg">
<g clip-path="url(#clip0_494_1727)">
<rect width="387" height="266" rx="20" fill="#BF0259"/>
<path d="M28.16 68.384C25.92 68.384 23.9787 67.904 22.336 66.944C20.7147 65.9627 19.4667 64.608 18.592 62.88C17.7173 61.1307 17.28 59.1147 17.28 56.832C17.28 54.5493 17.7173 52.5333 18.592 50.784C19.4667 49.0347 20.7147 47.6693 22.336 46.688C23.9573 45.7067 25.8987 45.216 28.16 45.216C30.8907 45.216 33.12 45.888 34.848 47.232C36.576 48.576 37.6533 50.4747 38.08 52.928H33.344C33.0667 51.7333 32.4907 50.8053 31.616 50.144C30.7413 49.4613 29.5787 49.12 28.128 49.12C26.784 49.12 25.6213 49.44 24.64 50.08C23.68 50.6987 22.944 51.584 22.432 52.736C21.92 53.888 21.664 55.2533 21.664 56.832C21.664 58.4107 21.92 59.776 22.432 60.928C22.944 62.0587 23.68 62.9333 24.64 63.552C25.6213 64.1707 26.784 64.48 28.128 64.48C29.5787 64.48 30.7413 64.1707 31.616 63.552C32.4907 62.9333 33.0667 62.0587 33.344 60.928H38.08C37.6747 63.2533 36.5973 65.0773 34.848 66.4C33.12 67.7227 30.8907 68.384 28.16 68.384ZM48.079 68.384C46.543 68.384 45.1563 68.032 43.919 67.328C42.6817 66.624 41.7003 65.6427 40.975 64.384C40.271 63.1253 39.919 61.6853 39.919 60.064C39.919 58.4213 40.2817 56.9813 41.007 55.744C41.7323 54.4853 42.7137 53.504 43.951 52.8C45.1883 52.096 46.5643 51.744 48.079 51.744C49.615 51.744 51.0017 52.096 52.239 52.8C53.4763 53.504 54.447 54.4853 55.151 55.744C55.8763 56.9813 56.239 58.4213 56.239 60.064C56.239 61.7067 55.8763 63.1573 55.151 64.416C54.4257 65.6533 53.4443 66.624 52.207 67.328C50.991 68.032 49.615 68.384 48.079 68.384ZM48.079 64.704C48.7617 64.704 49.3803 64.5333 49.935 64.192C50.511 63.8507 50.9697 63.3387 51.311 62.656C51.6737 61.952 51.855 61.088 51.855 60.064C51.855 59.04 51.6737 58.1867 51.311 57.504C50.9697 56.8 50.5217 56.2773 49.967 55.936C49.4123 55.5947 48.7937 55.424 48.111 55.424C47.4283 55.424 46.799 55.5947 46.223 55.936C45.647 56.2773 45.1883 56.8 44.847 57.504C44.5057 58.1867 44.335 59.04 44.335 60.064C44.335 61.088 44.5057 61.952 44.847 62.656C45.1883 63.3387 45.6363 63.8507 46.191 64.192C46.767 64.5333 47.3963 64.704 48.079 64.704ZM58.4465 68V52.128H62.2545L62.6065 54.528H62.6705C63.1825 53.632 63.8652 52.9493 64.7185 52.48C65.5718 51.9893 66.5638 51.744 67.6945 51.744C68.5052 51.744 69.2305 51.8507 69.8705 52.064C70.5318 52.2773 71.1185 52.608 71.6305 53.056C72.1425 53.4827 72.5692 54.0373 72.9105 54.72H72.9745C73.5718 53.7813 74.3292 53.056 75.2465 52.544C76.1852 52.0107 77.2838 51.744 78.5425 51.744C79.8438 51.744 80.9532 52.032 81.8705 52.608C82.8092 53.1627 83.5238 53.984 84.0145 55.072C84.5052 56.16 84.7505 57.504 84.7505 59.104V68H80.4625V59.488C80.4625 58.1653 80.2065 57.152 79.6945 56.448C79.1825 55.744 78.3825 55.392 77.2945 55.392C76.5905 55.392 75.9718 55.5627 75.4385 55.904C74.9052 56.224 74.4892 56.704 74.1905 57.344C73.9132 57.9627 73.7745 58.7307 73.7745 59.648V68H69.4545V59.488C69.4545 58.1653 69.1985 57.152 68.6865 56.448C68.1745 55.744 67.3745 55.392 66.2865 55.392C65.6252 55.392 65.0278 55.5733 64.4945 55.936C63.9612 56.2773 63.5345 56.7787 63.2145 57.44C62.9158 58.08 62.7665 58.8693 62.7665 59.808V68H58.4465ZM93.228 68.384C91.9267 68.384 90.8067 68.1067 89.868 67.552C88.9507 66.9973 88.2467 66.176 87.756 65.088C87.2867 63.9787 87.052 62.624 87.052 61.024V52.128H91.34V60.64C91.34 61.9627 91.6067 62.976 92.14 63.68C92.6733 64.384 93.5267 64.736 94.7 64.736C95.4253 64.736 96.076 64.5653 96.652 64.224C97.228 63.8613 97.676 63.36 97.996 62.72C98.316 62.0587 98.476 61.2587 98.476 60.32V52.128H102.796V68H99.052L98.7 65.408H98.636C98.1453 66.304 97.4413 67.0293 96.524 67.584C95.628 68.1173 94.5293 68.384 93.228 68.384ZM105.479 68V52.128H109.223L109.575 54.752H109.639C110.151 53.8347 110.855 53.1093 111.751 52.576C112.647 52.0213 113.746 51.744 115.047 51.744C116.37 51.744 117.49 52.032 118.407 52.608C119.324 53.1627 120.018 53.984 120.487 55.072C120.978 56.16 121.223 57.504 121.223 59.104V68H116.935V59.488C116.935 58.1653 116.668 57.152 116.135 56.448C115.602 55.744 114.748 55.392 113.575 55.392C112.85 55.392 112.199 55.5733 111.623 55.936C111.068 56.2773 110.62 56.7787 110.279 57.44C109.959 58.08 109.799 58.8693 109.799 59.808V68H105.479ZM124.034 68V52.128H128.354V68H124.034ZM126.21 49.984C125.421 49.984 124.781 49.7493 124.29 49.28C123.799 48.8107 123.554 48.224 123.554 47.52C123.554 46.816 123.799 46.24 124.29 45.792C124.781 45.3227 125.421 45.088 126.21 45.088C126.999 45.088 127.639 45.3227 128.13 45.792C128.642 46.24 128.898 46.816 128.898 47.52C128.898 48.224 128.642 48.8107 128.13 49.28C127.639 49.7493 126.999 49.984 126.21 49.984ZM138.523 68.384C137.029 68.384 135.707 68.0213 134.555 67.296C133.424 66.5707 132.528 65.5787 131.867 64.32C131.227 63.0613 130.907 61.632 130.907 60.032C130.907 58.4533 131.227 57.0347 131.867 55.776C132.528 54.5173 133.435 53.536 134.587 52.832C135.76 52.1067 137.104 51.744 138.619 51.744C139.813 51.744 140.859 51.9787 141.755 52.448C142.651 52.896 143.365 53.4827 143.899 54.208V45.28H148.219V68H144.475L144.123 65.504H144.059C143.696 66.0587 143.248 66.56 142.715 67.008C142.203 67.4347 141.595 67.7653 140.891 68C140.208 68.256 139.419 68.384 138.523 68.384ZM139.643 64.736C140.496 64.736 141.253 64.5333 141.915 64.128C142.576 63.7227 143.088 63.168 143.451 62.464C143.813 61.76 143.995 60.9493 143.995 60.032C143.995 59.136 143.813 58.336 143.451 57.632C143.088 56.928 142.576 56.384 141.915 56C141.253 55.5947 140.485 55.392 139.611 55.392C138.779 55.392 138.032 55.5947 137.371 56C136.709 56.384 136.197 56.928 135.835 57.632C135.472 58.336 135.291 59.136 135.291 60.032C135.291 60.9493 135.472 61.76 135.835 62.464C136.197 63.168 136.709 63.7227 137.371 64.128C138.032 64.5333 138.789 64.736 139.643 64.736ZM156.341 68.384C155.039 68.384 153.962 68.1707 153.109 67.744C152.255 67.3173 151.626 66.7413 151.221 66.016C150.815 65.2907 150.613 64.4907 150.613 63.616C150.613 62.6347 150.858 61.7707 151.349 61.024C151.861 60.2773 152.629 59.7013 153.653 59.296C154.677 58.8693 155.967 58.656 157.525 58.656H161.525C161.525 57.8667 161.407 57.2267 161.173 56.736C160.959 56.224 160.618 55.84 160.149 55.584C159.701 55.328 159.125 55.2 158.421 55.2C157.589 55.2 156.874 55.392 156.277 55.776C155.701 56.1387 155.338 56.704 155.189 57.472H150.997C151.125 56.2987 151.509 55.2853 152.149 54.432C152.81 53.5787 153.685 52.9173 154.773 52.448C155.861 51.9787 157.077 51.744 158.421 51.744C159.957 51.744 161.279 52 162.389 52.512C163.498 53.0027 164.351 53.7387 164.949 54.72C165.546 55.68 165.845 56.8533 165.845 58.24V68H162.229L161.749 65.536H161.685C161.407 65.984 161.087 66.3893 160.725 66.752C160.362 67.0933 159.957 67.392 159.509 67.648C159.082 67.8827 158.602 68.064 158.069 68.192C157.535 68.32 156.959 68.384 156.341 68.384ZM157.557 65.056C158.133 65.056 158.645 64.96 159.093 64.768C159.541 64.5547 159.914 64.2773 160.213 63.936C160.533 63.5947 160.778 63.2 160.949 62.752C161.141 62.2827 161.269 61.8027 161.333 61.312H158.005C157.343 61.312 156.799 61.3973 156.373 61.568C155.967 61.7173 155.669 61.9413 155.477 62.24C155.285 62.5173 155.189 62.848 155.189 63.232C155.189 63.616 155.285 63.9467 155.477 64.224C155.669 64.5013 155.946 64.7147 156.309 64.864C156.671 64.992 157.087 65.056 157.557 65.056ZM175.461 68.384C173.968 68.384 172.645 68.0213 171.493 67.296C170.363 66.5707 169.467 65.5787 168.805 64.32C168.165 63.0613 167.845 61.632 167.845 60.032C167.845 58.4533 168.165 57.0347 168.805 55.776C169.467 54.5173 170.373 53.536 171.525 52.832C172.699 52.1067 174.043 51.744 175.557 51.744C176.752 51.744 177.797 51.9787 178.693 52.448C179.589 52.896 180.304 53.4827 180.837 54.208V45.28H185.157V68H181.413L181.061 65.504H180.997C180.635 66.0587 180.187 66.56 179.653 67.008C179.141 67.4347 178.533 67.7653 177.829 68C177.147 68.256 176.357 68.384 175.461 68.384ZM176.581 64.736C177.435 64.736 178.192 64.5333 178.853 64.128C179.515 63.7227 180.027 63.168 180.389 62.464C180.752 61.76 180.933 60.9493 180.933 60.032C180.933 59.136 180.752 58.336 180.389 57.632C180.027 56.928 179.515 56.384 178.853 56C178.192 55.5947 177.424 55.392 176.549 55.392C175.717 55.392 174.971 55.5947 174.309 56C173.648 56.384 173.136 56.928 172.773 57.632C172.411 58.336 172.229 59.136 172.229 60.032C172.229 60.9493 172.411 61.76 172.773 62.464C173.136 63.168 173.648 63.7227 174.309 64.128C174.971 64.5333 175.728 64.736 176.581 64.736ZM195.743 68.384C194.122 68.384 192.682 68.0427 191.423 67.36C190.186 66.6773 189.215 65.7173 188.511 64.48C187.807 63.2427 187.455 61.824 187.455 60.224C187.455 58.56 187.797 57.0987 188.479 55.84C189.183 54.56 190.154 53.5573 191.391 52.832C192.65 52.1067 194.111 51.744 195.775 51.744C197.354 51.744 198.741 52.0853 199.935 52.768C201.151 53.4507 202.09 54.3893 202.751 55.584C203.434 56.7573 203.775 58.0907 203.775 59.584C203.775 59.7973 203.775 60.0427 203.775 60.32C203.775 60.576 203.754 60.8427 203.711 61.12H190.527V58.464H199.391C199.327 57.4827 198.954 56.6933 198.271 56.096C197.61 55.4987 196.778 55.2 195.775 55.2C195.029 55.2 194.346 55.3707 193.727 55.712C193.109 56.032 192.618 56.5227 192.255 57.184C191.893 57.8453 191.711 58.688 191.711 59.712V60.64C191.711 61.5147 191.882 62.272 192.223 62.912C192.565 63.5307 193.034 64.0107 193.631 64.352C194.25 64.6933 194.943 64.864 195.711 64.864C196.501 64.864 197.162 64.6933 197.695 64.352C198.229 63.9893 198.634 63.5307 198.911 62.976H203.327C203.007 63.9787 202.495 64.896 201.791 65.728C201.087 66.5387 200.223 67.1893 199.199 67.68C198.175 68.1493 197.023 68.384 195.743 68.384ZM219.932 68.384C218.311 68.384 216.871 68.0427 215.612 67.36C214.375 66.6773 213.404 65.7173 212.7 64.48C211.996 63.2427 211.644 61.824 211.644 60.224C211.644 58.56 211.985 57.0987 212.668 55.84C213.372 54.56 214.343 53.5573 215.58 52.832C216.839 52.1067 218.3 51.744 219.964 51.744C221.543 51.744 222.929 52.0853 224.124 52.768C225.34 53.4507 226.279 54.3893 226.94 55.584C227.623 56.7573 227.964 58.0907 227.964 59.584C227.964 59.7973 227.964 60.0427 227.964 60.32C227.964 60.576 227.943 60.8427 227.9 61.12H214.716V58.464H223.58C223.516 57.4827 223.143 56.6933 222.46 56.096C221.799 55.4987 220.967 55.2 219.964 55.2C219.217 55.2 218.535 55.3707 217.916 55.712C217.297 56.032 216.807 56.5227 216.444 57.184C216.081 57.8453 215.9 58.688 215.9 59.712V60.64C215.9 61.5147 216.071 62.272 216.412 62.912C216.753 63.5307 217.223 64.0107 217.82 64.352C218.439 64.6933 219.132 64.864 219.9 64.864C220.689 64.864 221.351 64.6933 221.884 64.352C222.417 63.9893 222.823 63.5307 223.1 62.976H227.516C227.196 63.9787 226.684 64.896 225.98 65.728C225.276 66.5387 224.412 67.1893 223.388 67.68C222.364 68.1493 221.212 68.384 219.932 68.384ZM243.545 68C242.414 68 241.422 67.8293 240.569 67.488C239.737 67.1253 239.086 66.5387 238.617 65.728C238.147 64.896 237.913 63.7653 237.913 62.336V55.648H235.193V52.128H237.913L238.393 47.808H242.233V52.128H246.457V55.648H242.233V62.4C242.233 63.1467 242.393 63.6693 242.713 63.968C243.033 64.2453 243.577 64.384 244.345 64.384H246.361V68H243.545ZM248.266 68V52.128H252.042L252.426 55.36H252.49C252.917 54.464 253.408 53.7493 253.962 53.216C254.538 52.6827 255.189 52.3093 255.914 52.096C256.64 51.8613 257.45 51.744 258.346 51.744V56.32H257.162C256.458 56.32 255.818 56.3947 255.242 56.544C254.688 56.6933 254.208 56.9493 253.802 57.312C253.418 57.6533 253.12 58.112 252.906 58.688C252.693 59.264 252.586 59.9787 252.586 60.832V68H248.266ZM267.213 68.384C265.677 68.384 264.29 68.032 263.053 67.328C261.815 66.624 260.834 65.6427 260.109 64.384C259.405 63.1253 259.053 61.6853 259.053 60.064C259.053 58.4213 259.415 56.9813 260.141 55.744C260.866 54.4853 261.847 53.504 263.085 52.8C264.322 52.096 265.698 51.744 267.213 51.744C268.749 51.744 270.135 52.096 271.373 52.8C272.61 53.504 273.581 54.4853 274.285 55.744C275.01 56.9813 275.373 58.4213 275.373 60.064C275.373 61.7067 275.01 63.1573 274.285 64.416C273.559 65.6533 272.578 66.624 271.341 67.328C270.125 68.032 268.749 68.384 267.213 68.384ZM267.213 64.704C267.895 64.704 268.514 64.5333 269.069 64.192C269.645 63.8507 270.103 63.3387 270.445 62.656C270.807 61.952 270.989 61.088 270.989 60.064C270.989 59.04 270.807 58.1867 270.445 57.504C270.103 56.8 269.655 56.2773 269.101 55.936C268.546 55.5947 267.927 55.424 267.245 55.424C266.562 55.424 265.933 55.5947 265.357 55.936C264.781 56.2773 264.322 56.8 263.981 57.504C263.639 58.1867 263.469 59.04 263.469 60.064C263.469 61.088 263.639 61.952 263.981 62.656C264.322 63.3387 264.77 63.8507 265.325 64.192C265.901 64.5333 266.53 64.704 267.213 64.704ZM285.452 68.384C283.788 68.384 282.327 68.032 281.068 67.328C279.831 66.6027 278.86 65.6213 278.156 64.384C277.452 63.1253 277.1 61.6853 277.1 60.064C277.1 58.4427 277.452 57.0133 278.156 55.776C278.882 54.5173 279.874 53.536 281.132 52.832C282.391 52.1067 283.831 51.744 285.452 51.744C287.5 51.744 289.228 52.2773 290.636 53.344C292.044 54.4107 292.93 55.8827 293.292 57.76H288.716C288.546 57.0133 288.162 56.4373 287.564 56.032C286.967 55.6053 286.252 55.392 285.42 55.392C284.674 55.392 284.002 55.584 283.404 55.968C282.828 56.3307 282.37 56.864 282.028 57.568C281.687 58.2507 281.516 59.0827 281.516 60.064C281.516 60.7893 281.612 61.44 281.804 62.016C281.996 62.5707 282.263 63.0507 282.604 63.456C282.967 63.8613 283.383 64.1707 283.852 64.384C284.322 64.5973 284.844 64.704 285.42 64.704C285.975 64.704 286.476 64.6187 286.924 64.448C287.372 64.256 287.756 63.9893 288.076 63.648C288.396 63.2853 288.61 62.8587 288.716 62.368H293.292C292.93 64.2027 292.044 65.664 290.636 66.752C289.228 67.84 287.5 68.384 285.452 68.384ZM300.847 68.384C299.545 68.384 298.468 68.1707 297.615 67.744C296.761 67.3173 296.132 66.7413 295.727 66.016C295.321 65.2907 295.119 64.4907 295.119 63.616C295.119 62.6347 295.364 61.7707 295.855 61.024C296.367 60.2773 297.135 59.7013 298.159 59.296C299.183 58.8693 300.473 58.656 302.031 58.656H306.031C306.031 57.8667 305.913 57.2267 305.679 56.736C305.465 56.224 305.124 55.84 304.655 55.584C304.207 55.328 303.631 55.2 302.927 55.2C302.095 55.2 301.38 55.392 300.783 55.776C300.207 56.1387 299.844 56.704 299.695 57.472H295.503C295.631 56.2987 296.015 55.2853 296.655 54.432C297.316 53.5787 298.191 52.9173 299.279 52.448C300.367 51.9787 301.583 51.744 302.927 51.744C304.463 51.744 305.785 52 306.895 52.512C308.004 53.0027 308.857 53.7387 309.455 54.72C310.052 55.68 310.351 56.8533 310.351 58.24V68H306.735L306.255 65.536H306.191C305.913 65.984 305.593 66.3893 305.231 66.752C304.868 67.0933 304.463 67.392 304.015 67.648C303.588 67.8827 303.108 68.064 302.575 68.192C302.041 68.32 301.465 68.384 300.847 68.384ZM302.063 65.056C302.639 65.056 303.151 64.96 303.599 64.768C304.047 64.5547 304.42 64.2773 304.719 63.936C305.039 63.5947 305.284 63.2 305.455 62.752C305.647 62.2827 305.775 61.8027 305.839 61.312H302.511C301.849 61.312 301.305 61.3973 300.879 61.568C300.473 61.7173 300.175 61.9413 299.983 62.24C299.791 62.5173 299.695 62.848 299.695 63.232C299.695 63.616 299.791 63.9467 299.983 64.224C300.175 64.5013 300.452 64.7147 300.815 64.864C301.177 64.992 301.593 65.056 302.063 65.056Z" fill="#F78520"/>
<path d="M425 380L424.743 333.66L415.634 145.474C415.12 137.002 413.581 128.53 410.245 120.699C399.467 95.5396 380.605 89.6348 371.367 85.9121C329.667 68.9677 294.382 82.9597 253.452 93.3574L269.105 152.021C287.838 142.522 291.303 141.11 302.465 138.029H302.85C324.663 131.996 347.245 145.731 351.351 168.067C351.351 168.195 351.351 168.452 351.479 168.58C263.588 181.674 141.567 224.933 183.524 322.749C212.136 389.628 312.602 383.851 350.709 327.755C350.581 332.248 350.581 336.227 350.838 339.693L350.325 368.319L425 380ZM340.445 254.843C283.604 380.128 213.035 288.988 327.614 236.743C334.671 233.405 342.113 231.352 349.17 229.298C347.245 237.898 344.294 246.37 340.445 254.843Z" fill="#F78520"/>
</g>
<defs>
<clipPath id="clip0_494_1727">
<rect width="387" height="266" rx="20" fill="white"/>
</clipPath>
</defs>
</svg>
