<svg width="619" height="616" viewBox="0 0 619 616" fill="none" xmlns="http://www.w3.org/2000/svg">
<path d="M618.981 471.148C618.981 471.148 471.187 459.405 370.064 381.164C500.351 327.564 603.683 177.512 477.571 55.9116C343.341 -73.8383 141.791 40.8487 125.529 209.732C124.08 221.264 122.958 267.926 127.512 278.822C-39.8815 299.015 -112.992 254.84 -112.992 254.84L-183.041 408.732L-100.945 430.343L-100.897 430.071C-100.897 430.071 -99.8555 430.533 -99.5832 430.581C-19.6757 447.041 90.1579 454.409 206.529 432.333C282.703 510.432 399.954 558.937 502.129 587.698C502.626 588.065 503.171 588.16 503.443 588.208L614.263 615.669L618.981 471.148ZM291.959 172.536C312.822 147.835 370.496 129.272 384.519 174.367C400.658 228.248 334.932 247.932 273.806 254.108C268.751 225.168 272.838 195.296 291.959 172.536Z" fill="#F78520"/>
</svg>
