<svg width="298" height="161" viewBox="0 0 298 161" fill="none" xmlns="http://www.w3.org/2000/svg">
<path d="M246.425 299.299C215.752 302.212 189.106 290.769 189.106 290.769C126.582 265.462 37.126 224.982 98.352 145.57C124.104 172.685 147.993 192.116 170.266 205.252C279.652 269.768 344.257 181.314 340.093 119.405C332.685 7.87901 163.886 -16.7411 81.0471 42.0911L39.2591 0.000148389L13.3141 62.6624L35.6816 86.179C27.6891 96.4171 20.5711 107.883 14.142 120.289C-46.6379 239.302 101.845 355.893 205.963 374.226C211.93 375.253 209.276 374.934 211.534 375.02C211.666 375.097 216.159 375.611 216.369 375.557L239.379 377.203L246.425 299.299ZM211.821 89.3182C243.812 83.2665 289.683 91.631 287.734 114.512C287.224 120.797 284.941 128.885 270.203 135.5C256.047 142.637 221.025 142.985 182.416 125.019C169.854 119.212 163.132 115.248 150.654 106.286C174.235 94.9178 184.419 94.5165 211.821 89.3182Z" fill="#81013A"/>
</svg>
