<svg width="145" height="40" viewBox="0 0 145 40" fill="none" xmlns="http://www.w3.org/2000/svg">
<g clip-path="url(#clip0_1511_580)">
<path d="M117.492 0L110.663 1.28816C110.663 1.28816 112.804 6.99094 110.46 13.7269C107.982 9.82221 103.429 6.92385 99.2932 7.58135V1.28816H91.9785V38.524H99.2932V26.1791C100.815 26.7561 102.486 27.0379 104.21 26.9037C104.776 26.8635 107.025 26.5414 107.51 26.2328C110.164 31.5867 108.467 38.7789 108.467 38.7789L116.347 40L116.697 35.894H116.684C116.684 35.894 116.697 35.8403 116.697 35.8135C116.819 31.8685 116.253 26.5548 114.205 21.1607C121.399 10.9628 117.492 0 117.492 0ZM100.344 19.3358C99.0507 18.4368 98.3098 15.8604 100.357 14.8272C102.809 13.6062 106.594 17.5377 107.403 20.4093C106.056 20.8923 101.745 20.3153 100.344 19.3358Z" fill="#F2F2F1"/>
<path d="M37.7051 1.22107V12.6535C56.9145 -1.87856 58.9351 27.2258 55.9041 40.0134L48.6299 38.7924C49.4516 33.8678 50.2733 22.1268 47.2963 18.5039C42.9721 13.2305 37.6916 20.5434 37.6916 24.5019V38.7924H30.3096V1.22107H37.6916H37.7051Z" fill="#F2F2F1"/>
<path d="M145 40L144.973 35.156L144.017 15.4847C143.963 14.5991 143.801 13.7135 143.451 12.895C142.319 10.265 140.339 9.64777 139.369 9.25864C134.991 7.48742 131.287 8.95002 126.989 10.0369L128.633 16.1691C130.6 15.1761 130.963 15.0285 132.135 14.7065H132.176C134.466 14.0758 136.837 15.5116 137.268 17.8464C137.268 17.8598 137.268 17.8866 137.281 17.9C128.054 19.2687 115.243 23.7907 119.648 34.0154C122.652 41.0064 133.199 40.4026 137.2 34.5387C137.187 35.0084 137.187 35.4244 137.214 35.7867L137.16 38.7789L145 40ZM136.123 26.9171C130.155 40.0134 122.746 30.4864 134.776 25.0252C135.516 24.6763 136.298 24.4616 137.039 24.2469C136.837 25.1459 136.527 26.0315 136.123 26.9171Z" fill="#F2F2F1"/>
<path d="M28.7465 2.84469V9.37941H18.9128V38.7789H10.7091C11.1402 28.9165 11.8676 19.2419 10.7091 9.37941L-0.0136719 9.32573V2.84469H28.7331H28.7465Z" fill="#F2F2F1"/>
<path d="M87.5872 30.6743C85.3915 32.2576 82.859 32.5797 82.859 32.5797C76.9857 33.4519 68.3913 34.3777 69.4824 25.6692C72.6481 26.5683 75.3288 26.9708 77.6053 26.9708C88.7861 26.9708 89.7291 17.4304 86.6443 12.9487C81.0943 4.87086 67.1924 10.52 63.5418 18.638L58.4902 17.3231L59.3254 23.2003L62.0735 23.9785C61.9253 25.1057 61.8984 26.2865 61.9657 27.5076C62.6797 39.1815 79.1545 41.3687 87.8701 38.1214C88.3685 37.9336 88.153 38.0275 88.3281 37.9336C88.3416 37.9336 88.7053 37.7726 88.7188 37.7591L90.5373 36.8601L87.5872 30.6743ZM75.5712 16.3838C77.7266 14.5052 81.5792 13.0963 82.4548 14.9078C82.6973 15.4042 82.8859 16.1154 82.0642 17.2694C81.3098 18.4368 78.6695 20.0201 74.9381 20.3824C73.7257 20.5032 73.0387 20.5032 71.6917 20.3824C72.9714 18.477 73.7257 17.994 75.5712 16.3838Z" fill="#F2F2F1"/>
</g>
<defs>
<clipPath id="clip0_1511_580">
<rect width="145" height="40" fill="white"/>
</clipPath>
</defs>
</svg>
