<svg width="487" height="136" viewBox="0 0 487 136" fill="none" xmlns="http://www.w3.org/2000/svg">
<g clip-path="url(#clip0_1164_1391)">
<path d="M394.613 0L371.674 4.34995C371.674 4.34995 378.868 23.6075 370.996 46.3541C362.671 33.1684 347.379 23.381 333.489 25.6013V4.34995H308.922V130.091H333.489V88.4036C338.602 90.3521 344.212 91.3036 350.003 90.8505C351.903 90.7146 359.459 89.6271 361.088 88.5849C370 106.664 364.3 130.952 364.3 130.952L390.767 135.075L391.944 121.21H391.898C391.898 121.21 391.944 121.028 391.944 120.938C392.351 107.616 390.45 89.6724 383.573 71.457C407.733 37.0199 394.613 0 394.613 0ZM337.018 65.2945C332.675 62.2586 330.186 53.5587 337.063 50.0697C345.298 45.9463 358.011 59.2227 360.726 68.9195C356.201 70.5507 341.723 68.6023 337.018 65.2945Z" fill="#F8C200"/>
<path d="M126.636 4.12329V42.7291C191.154 -6.34377 197.94 91.9379 187.76 135.12L163.329 130.997C166.089 114.367 168.849 74.7193 158.85 62.4851C144.327 44.6775 126.591 69.3725 126.591 82.7396V130.997H101.798V4.12329H126.591H126.636Z" fill="#F8C200"/>
<path d="M486.999 135.075L486.909 118.717L483.697 52.2901C483.516 49.2995 482.973 46.3089 481.796 43.5449C477.996 34.6637 471.345 32.5794 468.088 31.2653C453.383 25.2841 440.942 30.2231 426.509 33.8934L432.029 54.601C438.634 51.2479 439.856 50.7495 443.792 49.662H443.928C451.619 47.5323 459.582 52.3807 461.03 60.265C461.03 60.3103 461.03 60.4009 461.075 60.4462C430.083 65.068 387.057 80.3382 401.851 114.866C411.941 138.473 447.366 136.434 460.803 116.633C460.758 118.219 460.758 119.624 460.849 120.847L460.668 130.952L486.999 135.075ZM457.184 90.8959C437.141 135.12 412.257 102.949 452.66 84.5069C455.148 83.3288 457.772 82.6038 460.261 81.8788C459.582 84.9147 458.541 87.9053 457.184 90.8959Z" fill="#F8C200"/>
<path d="M96.5488 9.60596V31.6729H63.5211V130.951H35.9679C37.4156 97.6471 39.8588 64.9772 35.9679 31.6729L-0.0458984 31.4916V9.60596H96.5035H96.5488Z" fill="#F8C200"/>
<path d="M294.173 103.583C286.798 108.93 278.293 110.018 278.293 110.018C258.566 112.963 229.701 116.089 233.366 86.6819C243.998 89.7178 253.002 91.0771 260.648 91.0771C298.2 91.0771 301.367 58.8603 291.006 43.7261C272.366 16.4483 225.675 35.5246 213.414 62.9384L196.447 58.4978L199.252 78.3445L208.482 80.9726C207.984 84.7788 207.894 88.7662 208.12 92.8896C210.518 132.311 265.851 139.697 295.123 128.731C296.797 128.097 296.073 128.414 296.661 128.097C296.707 128.097 297.928 127.553 297.973 127.508L304.081 124.472L294.173 103.583ZM253.816 55.326C261.055 48.9823 273.994 44.2245 276.935 50.3417C277.75 52.0182 278.383 54.4197 275.623 58.3166C273.09 62.2587 264.222 67.6055 251.689 68.8289C247.618 69.2367 245.31 69.2367 240.786 68.8289C245.084 62.3946 247.618 60.7634 253.816 55.326Z" fill="#F8C200"/>
</g>
<defs>
<clipPath id="clip0_1164_1391">
<rect width="487" height="135.075" fill="white"/>
</clipPath>
</defs>
</svg>
