<svg width="704" height="195" viewBox="0 0 704 195" fill="none" xmlns="http://www.w3.org/2000/svg">
<g clip-path="url(#clip0_47_96)">
<path d="M569.68 0L536.566 6.27977C536.566 6.27977 546.951 34.0808 535.586 66.9188C523.568 47.8833 501.491 33.7538 481.439 36.9591V6.27977H445.973V187.804H481.439V127.623C488.82 130.436 496.919 131.81 505.279 131.156C508.023 130.959 518.93 129.389 521.282 127.885C534.149 153.985 525.919 189.047 525.919 189.047L564.129 195L565.827 174.983H565.761C565.761 174.983 565.827 174.722 565.827 174.591C566.415 155.359 563.671 129.455 553.743 103.158C588.622 53.4435 569.68 0 569.68 0ZM486.534 94.262C480.264 89.8792 476.671 77.3197 486.599 72.2828C498.487 66.3301 516.84 85.4965 520.759 99.4951C514.228 101.85 493.327 99.0372 486.534 94.262Z" fill="#81013A"/>
<path d="M182.818 5.95264V61.6856C275.957 -9.15806 285.755 132.726 271.059 195.065L235.789 189.113C239.773 165.106 243.757 107.868 229.322 90.2062C208.356 64.4984 182.753 100.149 182.753 119.446V189.113H146.96V5.95264H182.753H182.818Z" fill="#81013A"/>
<path d="M703.054 195L702.923 171.386L698.286 75.4882C698.025 71.1708 697.241 66.8535 695.543 62.8632C690.056 50.042 680.455 47.033 675.752 45.1359C654.525 36.5013 636.563 43.6314 615.728 48.93L623.696 78.8243C633.232 73.9837 634.996 73.2641 640.678 71.6942H640.874C651.978 68.6197 663.473 75.619 665.563 87.0011C665.563 87.0665 665.563 87.1973 665.628 87.2628C620.887 93.935 558.773 115.98 580.131 165.825C594.696 199.906 645.838 196.963 665.237 168.376C665.171 170.666 665.171 172.694 665.302 174.46L665.041 189.047L703.054 195ZM660.011 131.221C631.077 195.066 595.153 148.621 653.48 121.998C657.072 120.297 660.86 119.25 664.453 118.204C663.473 122.586 661.971 126.904 660.011 131.221Z" fill="#81013A"/>
<path d="M139.383 13.8677V45.7244H91.7026V189.047H51.9256C54.0157 140.968 57.5427 93.8039 51.9256 45.7244L-0.0654297 45.4628V13.8677H139.317H139.383Z" fill="#81013A"/>
<path d="M424.68 149.537C414.034 157.256 401.755 158.826 401.755 158.826C373.277 163.078 331.606 167.591 336.896 125.137C352.246 129.52 365.243 131.483 376.282 131.483C430.493 131.483 435.065 84.9731 420.108 63.1247C393.198 23.7453 325.793 51.2847 308.092 90.8604L283.599 84.4498L287.649 113.101L300.973 116.895C300.255 122.39 300.124 128.147 300.45 134.099C303.912 191.01 383.793 201.672 426.052 185.842C428.469 184.926 427.423 185.384 428.273 184.926C428.338 184.926 430.101 184.141 430.167 184.076L438.984 179.693L424.68 149.537ZM366.419 79.8708C376.869 70.7128 395.55 63.8443 399.795 72.6752C400.971 75.0955 401.885 78.5625 397.901 84.1881C394.243 89.8792 381.441 97.598 363.349 99.3642C357.471 99.953 354.14 99.953 347.608 99.3642C353.813 90.0754 357.471 87.7205 366.419 79.8708Z" fill="#81013A"/>
</g>
<defs>
<clipPath id="clip0_47_96">
<rect width="703.054" height="195" fill="white"/>
</clipPath>
</defs>
</svg>
