<svg width="237" height="102" viewBox="0 0 237 102" fill="none" xmlns="http://www.w3.org/2000/svg">
<g clip-path="url(#clip0_934_3529)">
<path d="M192.04 0L180.877 2.11692C180.877 2.11692 184.377 11.4887 180.546 22.5584C176.495 16.1415 169.053 11.3784 162.294 12.4589V2.11692H150.338V63.309H162.294V43.0219C164.782 43.9701 167.512 44.4332 170.33 44.2127C171.255 44.1465 174.932 43.6173 175.724 43.1101C180.062 51.9085 177.288 63.728 177.288 63.728L190.168 65.7346L190.741 58.987H190.719C190.719 58.987 190.741 58.8988 190.741 58.8547C190.939 52.3716 190.014 43.6393 186.667 34.7747C198.425 18.0158 192.04 0 192.04 0ZM164.011 31.7758C161.897 30.2983 160.686 26.0645 164.033 24.3666C168.04 22.3599 174.227 28.8209 175.548 33.5399C173.347 34.3337 166.301 33.3855 164.011 31.7758Z" fill="#F36EC7"/>
<path d="M61.6278 2.00659V20.7942C93.0253 -3.08723 96.3279 44.7418 91.3739 65.7566L79.4843 63.75C80.8274 55.6572 82.1705 36.3624 77.3045 30.4085C70.2368 21.7424 61.6058 33.7603 61.6058 40.2654V63.75H49.54V2.00659H61.6058H61.6278Z" fill="#F36EC7"/>
<path d="M237 65.7347L236.956 57.7742L235.393 25.4471C235.304 23.9918 235.04 22.5364 234.468 21.1912C232.618 16.8692 229.382 15.8549 227.796 15.2154C220.641 12.3046 214.586 14.7082 207.562 16.4943L210.248 26.5717C213.463 24.94 214.057 24.6974 215.973 24.1682H216.039C219.782 23.1318 223.657 25.4912 224.362 29.3281C224.362 29.3502 224.362 29.3943 224.384 29.4163C209.301 31.6656 188.362 39.0968 195.562 55.8998C200.472 67.3885 217.712 66.3962 224.252 56.7598C224.229 57.5316 224.229 58.2152 224.274 58.8106L224.185 63.728L237 65.7347ZM222.49 44.2348C212.736 65.7567 200.626 50.1004 220.288 41.1255C221.499 40.5522 222.776 40.1994 223.987 39.8466C223.657 41.324 223.151 42.7794 222.49 44.2348Z" fill="#F36EC7"/>
<path d="M46.9856 4.6748V15.4137H30.9126V63.7279H17.5037C18.2083 47.5203 19.3973 31.6214 17.5037 15.4137L-0.0224609 15.3255V4.6748H46.9636H46.9856Z" fill="#F36EC7"/>
<path d="M143.16 50.4091C139.571 53.0111 135.432 53.5404 135.432 53.5404C125.832 54.9737 111.785 56.4952 113.568 42.184C118.742 43.6614 123.124 44.323 126.845 44.323C145.12 44.323 146.661 28.6445 141.619 21.2794C132.547 8.00462 109.825 17.2882 103.858 30.6292L95.6016 28.4681L96.9667 38.1266L101.458 39.4055C101.216 41.2578 101.172 43.1983 101.282 45.205C102.449 64.3895 129.377 67.9839 143.622 62.6475C144.437 62.3388 144.085 62.4931 144.371 62.3388C144.393 62.3388 144.988 62.0742 145.01 62.0521L147.982 60.5747L143.16 50.4091ZM123.52 26.9246C127.043 23.8374 133.34 21.522 134.771 24.4989C135.168 25.3148 135.476 26.4835 134.133 28.3799C132.9 30.2984 128.584 32.9004 122.485 33.4958C120.504 33.6943 119.381 33.6943 117.179 33.4958C119.271 30.3645 120.504 29.5707 123.52 26.9246Z" fill="#F36EC7"/>
</g>
<path d="M1.36719 96.7346H0.392756L4.09659 86.5528H5.09091L8.79474 96.7346H7.82031L4.62855 87.7609H4.55895L1.36719 96.7346ZM2.06818 92.8319H7.11932V93.6671H2.06818V92.8319ZM15.31 89.0983L12.521 96.7346H11.5763L8.78729 89.0983H9.7468L12.0138 95.5663H12.0835L14.3505 89.0983H15.31ZM19.8553 96.8937C19.1427 96.8937 18.5262 96.728 18.0059 96.3966C17.4855 96.0618 17.0828 95.5994 16.7978 95.0095C16.516 94.4162 16.3752 93.7334 16.3752 92.9612C16.3752 92.1922 16.516 91.5095 16.7978 90.9129C17.0828 90.313 17.4756 89.844 17.976 89.5059C18.4798 89.1645 19.0615 88.9939 19.7211 88.9939C20.1354 88.9939 20.5347 89.0701 20.9192 89.2225C21.3037 89.3717 21.6484 89.602 21.9533 89.9136C22.2615 90.2218 22.5051 90.6113 22.6841 91.0819C22.8631 91.5492 22.9526 92.1028 22.9526 92.7424V93.1799H16.9867V92.3994H22.0478C22.0478 91.9089 21.9483 91.468 21.7495 91.0769C21.5539 90.6825 21.2805 90.371 20.9292 90.1423C20.5811 89.9136 20.1784 89.7992 19.7211 89.7992C19.2372 89.7992 18.8113 89.9285 18.4434 90.187C18.0755 90.4456 17.7871 90.7869 17.5783 91.2112C17.3728 91.6354 17.2684 92.0994 17.2651 92.6032V93.0706C17.2651 93.6771 17.3695 94.2074 17.5783 94.6615C17.7904 95.1122 18.0904 95.4619 18.4782 95.7105C18.8659 95.9591 19.325 96.0833 19.8553 96.0833C20.2166 96.0833 20.5331 96.027 20.8049 95.9143C21.08 95.8016 21.3103 95.6508 21.4959 95.4619C21.6848 95.2697 21.8274 95.0592 21.9235 94.8305L22.7637 95.1039C22.6477 95.4254 22.4571 95.7221 22.1919 95.9939C21.9301 96.2656 21.602 96.4844 21.2076 96.6501C20.8165 96.8125 20.3657 96.8937 19.8553 96.8937ZM25.7876 91.9619V96.7346H24.9027V89.0983H25.7628V90.2964H25.8423C26.0213 89.9053 26.2997 89.5921 26.6776 89.3568C27.0587 89.1181 27.5294 88.9988 28.0895 88.9988C28.6032 88.9988 29.054 89.1065 29.4418 89.322C29.8329 89.5341 30.1361 89.8473 30.3516 90.2616C30.5703 90.6759 30.6797 91.1847 30.6797 91.7879V96.7346H29.7947V91.8426C29.7947 91.2162 29.6191 90.7207 29.2678 90.3561C28.9197 89.9915 28.4524 89.8092 27.8658 89.8092C27.4647 89.8092 27.1084 89.8954 26.7969 90.0677C26.4853 90.2401 26.2384 90.4886 26.0561 90.8135C25.8771 91.135 25.7876 91.5178 25.7876 91.9619ZM36.0179 89.0983V89.8689H32.3738V89.0983H36.0179ZM33.5123 87.2687H34.4022V94.741C34.4022 95.0592 34.4569 95.3094 34.5662 95.4917C34.6756 95.6707 34.8181 95.7983 34.9938 95.8745C35.1694 95.9475 35.3567 95.9839 35.5556 95.9839C35.6716 95.9839 35.771 95.9773 35.8539 95.964C35.9367 95.9475 36.0096 95.9309 36.0726 95.9143L36.2615 96.7147C36.1754 96.7479 36.0693 96.7777 35.9434 96.8042C35.8174 96.8341 35.6616 96.849 35.476 96.849C35.1512 96.849 34.838 96.7777 34.5364 96.6352C34.2381 96.4927 33.9928 96.2805 33.8006 95.9988C33.6084 95.7171 33.5123 95.3674 33.5123 94.9498V87.2687ZM42.88 93.8163V89.0983H43.7649V96.7346H42.88V95.4669H42.8104C42.6314 95.858 42.348 96.1844 41.9602 96.4463C41.5724 96.7048 41.0985 96.8341 40.5384 96.8341C40.0511 96.8341 39.6186 96.728 39.2408 96.5159C38.8629 96.3004 38.5663 95.9856 38.3509 95.5713C38.1354 95.157 38.0277 94.6482 38.0277 94.045V89.0983H38.9126V93.9903C38.9126 94.5869 39.0883 95.0675 39.4396 95.4321C39.791 95.7933 40.2417 95.974 40.7919 95.974C41.1366 95.974 41.468 95.8911 41.7862 95.7254C42.1044 95.5597 42.3662 95.3177 42.5717 94.9995C42.7772 94.678 42.88 94.2836 42.88 93.8163ZM46.1078 96.7346V89.0983H46.9679V90.2716H47.0325C47.185 89.8871 47.4501 89.5772 47.8279 89.3419C48.2091 89.1032 48.64 88.9839 49.1206 88.9839C49.1935 88.9839 49.2747 88.9856 49.3642 88.9889C49.4537 88.9922 49.5282 88.9955 49.5879 88.9988V89.8987C49.5481 89.8921 49.4785 89.8821 49.3791 89.8689C49.2797 89.8556 49.1719 89.849 49.0559 89.849C48.6582 89.849 48.3036 89.9335 47.992 90.1025C47.6838 90.2682 47.4402 90.4986 47.2612 90.7936C47.0822 91.0885 46.9927 91.425 46.9927 91.8028V96.7346H46.1078ZM53.2308 96.9086C52.7701 96.9086 52.3492 96.8191 51.968 96.6402C51.5869 96.4579 51.2836 96.196 51.0582 95.8546C50.8329 95.51 50.7202 95.0923 50.7202 94.6018C50.7202 94.224 50.7914 93.9058 50.9339 93.6473C51.0765 93.3887 51.2786 93.1766 51.5405 93.0109C51.8023 92.8452 52.1122 92.7143 52.4702 92.6181C52.8281 92.522 53.2225 92.4475 53.6534 92.3944C54.081 92.3414 54.4422 92.295 54.7372 92.2552C55.0355 92.2154 55.2625 92.1525 55.4183 92.0663C55.5741 91.9801 55.652 91.8409 55.652 91.6487V91.4697C55.652 90.9493 55.4962 90.54 55.1847 90.2417C54.8764 89.9401 54.4323 89.7893 53.8523 89.7893C53.3021 89.7893 52.853 89.9103 52.505 90.1522C52.1603 90.3942 51.9183 90.6792 51.7791 91.0073L50.9389 90.7041C51.1113 90.2865 51.3499 89.9534 51.6548 89.7048C51.9598 89.4529 52.3011 89.2723 52.679 89.1629C53.0568 89.0502 53.4396 88.9939 53.8274 88.9939C54.1191 88.9939 54.4223 89.032 54.7372 89.1082C55.0554 89.1844 55.3504 89.317 55.6222 89.5059C55.8939 89.6915 56.1143 89.9517 56.2834 90.2865C56.4524 90.6179 56.5369 91.0388 56.5369 91.5492V96.7346H55.652V95.5265H55.5973C55.4912 95.7519 55.3338 95.9707 55.125 96.1828C54.9162 96.3949 54.6544 96.5689 54.3395 96.7048C54.0246 96.8407 53.6551 96.9086 53.2308 96.9086ZM53.3501 96.0983C53.8208 96.0983 54.2285 95.9939 54.5732 95.785C54.9179 95.5762 55.183 95.2995 55.3686 94.9548C55.5575 94.6068 55.652 94.224 55.652 93.8064V92.7027C55.5857 92.7656 55.4747 92.822 55.3189 92.8717C55.1664 92.9214 54.9891 92.9662 54.7869 93.0059C54.5881 93.0424 54.3892 93.0739 54.1903 93.1004C53.9915 93.1269 53.8125 93.1501 53.6534 93.17C53.2225 93.223 52.8546 93.3059 52.5497 93.4186C52.2448 93.5313 52.0111 93.687 51.8487 93.8859C51.6863 94.0814 51.6051 94.3333 51.6051 94.6416C51.6051 95.1056 51.7708 95.4652 52.1023 95.7204C52.4337 95.9723 52.8497 96.0983 53.3501 96.0983ZM64.0217 90.7737L63.2113 91.0024C63.1317 90.7737 63.0191 90.5665 62.8732 90.3809C62.7274 90.1953 62.5368 90.0478 62.3015 89.9385C62.0695 89.8291 61.7811 89.7744 61.4364 89.7744C60.9194 89.7744 60.4951 89.897 60.1637 90.1423C59.8323 90.3876 59.6665 90.7041 59.6665 91.0919C59.6665 91.42 59.7792 91.6868 60.0046 91.8923C60.2333 92.0945 60.5846 92.2552 61.0586 92.3745L62.212 92.6579C62.8517 92.8137 63.3306 93.0606 63.6488 93.3987C63.9703 93.7367 64.131 94.161 64.131 94.6714C64.131 95.1023 64.0117 95.4851 63.7731 95.8198C63.5344 96.1546 63.2013 96.4181 62.7738 96.6103C62.3496 96.7992 61.8574 96.8937 61.2972 96.8937C60.5515 96.8937 59.9367 96.7263 59.4528 96.3916C58.9689 96.0535 58.659 95.5663 58.5231 94.9299L59.3732 94.7211C59.4826 95.1752 59.6964 95.5182 60.0146 95.7502C60.3361 95.9823 60.7586 96.0983 61.2823 96.0983C61.869 96.0983 62.338 95.9673 62.6893 95.7055C63.0406 95.4403 63.2163 95.1089 63.2163 94.7112C63.2163 94.4029 63.1135 94.1444 62.908 93.9356C62.7025 93.7235 62.391 93.5677 61.9734 93.4683L60.7255 93.17C60.0626 93.0109 59.5721 92.759 59.2539 92.4143C58.9357 92.0696 58.7766 91.6421 58.7766 91.1316C58.7766 90.7107 58.891 90.3412 59.1197 90.023C59.3484 89.7015 59.6632 89.4496 60.0643 89.2673C60.4653 89.085 60.9227 88.9939 61.4364 88.9939C62.1358 88.9939 62.6942 89.1529 63.1119 89.4711C63.5328 89.786 63.8361 90.2202 64.0217 90.7737ZM70.8912 86.5528V96.7346H70.0062V86.5528H70.8912ZM73.2427 96.7346V89.0983H74.1326V96.7346H73.2427ZM73.6951 87.7858C73.5128 87.7858 73.3571 87.7244 73.2278 87.6018C73.0985 87.4759 73.0339 87.3251 73.0339 87.1494C73.0339 86.9737 73.0985 86.8246 73.2278 86.7019C73.3571 86.576 73.5128 86.513 73.6951 86.513C73.8774 86.513 74.0332 86.576 74.1625 86.7019C74.2917 86.8246 74.3564 86.9737 74.3564 87.1494C74.3564 87.3251 74.2917 87.4759 74.1625 87.6018C74.0332 87.7244 73.8774 87.7858 73.6951 87.7858ZM79.4808 89.0983V89.8689H75.8366V89.0983H79.4808ZM76.9751 87.2687H77.8651V94.741C77.8651 95.0592 77.9197 95.3094 78.0291 95.4917C78.1385 95.6707 78.281 95.7983 78.4567 95.8745C78.6323 95.9475 78.8196 95.9839 79.0185 95.9839C79.1345 95.9839 79.2339 95.9773 79.3168 95.964C79.3996 95.9475 79.4725 95.9309 79.5355 95.9143L79.7244 96.7147C79.6383 96.7479 79.5322 96.7777 79.4062 96.8042C79.2803 96.8341 79.1245 96.849 78.9389 96.849C78.6141 96.849 78.3009 96.7777 77.9993 96.6352C77.701 96.4927 77.4557 96.2805 77.2635 95.9988C77.0713 95.7171 76.9751 95.3674 76.9751 94.9498V87.2687ZM84.4959 96.8937C83.7833 96.8937 83.1668 96.728 82.6465 96.3966C82.1261 96.0618 81.7234 95.5994 81.4384 95.0095C81.1567 94.4162 81.0158 93.7334 81.0158 92.9612C81.0158 92.1922 81.1567 91.5095 81.4384 90.9129C81.7234 90.313 82.1162 89.844 82.6167 89.5059C83.1204 89.1645 83.7021 88.9939 84.3617 88.9939C84.776 88.9939 85.1754 89.0701 85.5598 89.2225C85.9443 89.3717 86.289 89.602 86.5939 89.9136C86.9022 90.2218 87.1458 90.6113 87.3248 91.0819C87.5037 91.5492 87.5932 92.1028 87.5932 92.7424V93.1799H81.6273V92.3994H86.6884C86.6884 91.9089 86.589 91.468 86.3901 91.0769C86.1945 90.6825 85.9211 90.371 85.5698 90.1423C85.2218 89.9136 84.8191 89.7992 84.3617 89.7992C83.8778 89.7992 83.4519 89.9285 83.084 90.187C82.7161 90.4456 82.4277 90.7869 82.2189 91.2112C82.0134 91.6354 81.909 92.0994 81.9057 92.6032V93.0706C81.9057 93.6771 82.0101 94.2074 82.2189 94.6615C82.431 95.1122 82.731 95.4619 83.1188 95.7105C83.5066 95.9591 83.9656 96.0833 84.4959 96.0833C84.8572 96.0833 85.1737 96.027 85.4455 95.9143C85.7206 95.8016 85.9509 95.6508 86.1365 95.4619C86.3255 95.2697 86.468 95.0592 86.5641 94.8305L87.4043 95.1039C87.2883 95.4254 87.0977 95.7221 86.8326 95.9939C86.5707 96.2656 86.2426 96.4844 85.8482 96.6501C85.4571 96.8125 85.0063 96.8937 84.4959 96.8937ZM89.5433 96.7346V89.0983H90.4034V90.2716H90.468C90.6205 89.8871 90.8857 89.5772 91.2635 89.3419C91.6446 89.1032 92.0755 88.9839 92.5561 88.9839C92.629 88.9839 92.7102 88.9856 92.7997 88.9889C92.8892 88.9922 92.9638 88.9955 93.0234 88.9988V89.8987C92.9837 89.8921 92.9141 89.8821 92.8146 89.8689C92.7152 89.8556 92.6075 89.849 92.4915 89.849C92.0938 89.849 91.7391 89.9335 91.4276 90.1025C91.1193 90.2682 90.8757 90.4986 90.6967 90.7936C90.5178 91.0885 90.4283 91.425 90.4283 91.8028V96.7346H89.5433ZM96.6664 96.9086C96.2057 96.9086 95.7847 96.8191 95.4036 96.6402C95.0224 96.4579 94.7192 96.196 94.4938 95.8546C94.2684 95.51 94.1557 95.0923 94.1557 94.6018C94.1557 94.224 94.227 93.9058 94.3695 93.6473C94.512 93.3887 94.7142 93.1766 94.976 93.0109C95.2379 92.8452 95.5478 92.7143 95.9057 92.6181C96.2637 92.522 96.6581 92.4475 97.089 92.3944C97.5165 92.3414 97.8778 92.295 98.1728 92.2552C98.4711 92.2154 98.6981 92.1525 98.8539 92.0663C99.0096 91.9801 99.0875 91.8409 99.0875 91.6487V91.4697C99.0875 90.9493 98.9318 90.54 98.6202 90.2417C98.312 89.9401 97.8678 89.7893 97.2878 89.7893C96.7376 89.7893 96.2885 89.9103 95.9405 90.1522C95.5958 90.3942 95.3539 90.6792 95.2147 91.0073L94.3745 90.7041C94.5468 90.2865 94.7855 89.9534 95.0904 89.7048C95.3953 89.4529 95.7367 89.2723 96.1145 89.1629C96.4924 89.0502 96.8752 88.9939 97.263 88.9939C97.5546 88.9939 97.8579 89.032 98.1728 89.1082C98.4909 89.1844 98.7859 89.317 99.0577 89.5059C99.3295 89.6915 99.5499 89.9517 99.7189 90.2865C99.888 90.6179 99.9725 91.0388 99.9725 91.5492V96.7346H99.0875V95.5265H99.0328C98.9268 95.7519 98.7694 95.9707 98.5605 96.1828C98.3517 96.3949 98.0899 96.5689 97.775 96.7048C97.4602 96.8407 97.0906 96.9086 96.6664 96.9086ZM96.7857 96.0983C97.2563 96.0983 97.664 95.9939 98.0087 95.785C98.3534 95.5762 98.6185 95.2995 98.8042 94.9548C98.9931 94.6068 99.0875 94.224 99.0875 93.8064V92.7027C99.0212 92.7656 98.9102 92.822 98.7544 92.8717C98.602 92.9214 98.4247 92.9662 98.2225 93.0059C98.0236 93.0424 97.8248 93.0739 97.6259 93.1004C97.427 93.1269 97.248 93.1501 97.089 93.17C96.6581 93.223 96.2902 93.3059 95.9853 93.4186C95.6803 93.5313 95.4467 93.687 95.2843 93.8859C95.1219 94.0814 95.0407 94.3333 95.0407 94.6416C95.0407 95.1056 95.2064 95.4652 95.5378 95.7204C95.8693 95.9723 96.2852 96.0983 96.7857 96.0983ZM96.9299 88.0393L98.2026 85.7822H99.2516L97.7253 88.0393H96.9299ZM102.327 96.7346V89.0983H103.187V90.2716H103.251C103.404 89.8871 103.669 89.5772 104.047 89.3419C104.428 89.1032 104.859 88.9839 105.339 88.9839C105.412 88.9839 105.493 88.9856 105.583 88.9889C105.672 88.9922 105.747 88.9955 105.807 88.9988V89.8987C105.767 89.8921 105.697 89.8821 105.598 89.8689C105.498 89.8556 105.391 89.849 105.275 89.849C104.877 89.849 104.522 89.9335 104.211 90.1025C103.903 90.2682 103.659 90.4986 103.48 90.7936C103.301 91.0885 103.211 91.425 103.211 91.8028V96.7346H102.327ZM107.327 96.7346V89.0983H108.217V96.7346H107.327ZM107.779 87.7858C107.597 87.7858 107.441 87.7244 107.312 87.6018C107.183 87.4759 107.118 87.3251 107.118 87.1494C107.118 86.9737 107.183 86.8246 107.312 86.7019C107.441 86.576 107.597 86.513 107.779 86.513C107.961 86.513 108.117 86.576 108.246 86.7019C108.376 86.8246 108.44 86.9737 108.44 87.1494C108.44 87.3251 108.376 87.4759 108.246 87.6018C108.117 87.7244 107.961 87.7858 107.779 87.7858ZM112.69 96.9086C112.229 96.9086 111.808 96.8191 111.427 96.6402C111.046 96.4579 110.743 96.196 110.517 95.8546C110.292 95.51 110.179 95.0923 110.179 94.6018C110.179 94.224 110.25 93.9058 110.393 93.6473C110.535 93.3887 110.738 93.1766 110.999 93.0109C111.261 92.8452 111.571 92.7143 111.929 92.6181C112.287 92.522 112.682 92.4475 113.112 92.3944C113.54 92.3414 113.901 92.295 114.196 92.2552C114.494 92.2154 114.722 92.1525 114.877 92.0663C115.033 91.9801 115.111 91.8409 115.111 91.6487V91.4697C115.111 90.9493 114.955 90.54 114.644 90.2417C114.335 89.9401 113.891 89.7893 113.311 89.7893C112.761 89.7893 112.312 89.9103 111.964 90.1522C111.619 90.3942 111.377 90.6792 111.238 91.0073L110.398 90.7041C110.57 90.2865 110.809 89.9534 111.114 89.7048C111.419 89.4529 111.76 89.2723 112.138 89.1629C112.516 89.0502 112.899 88.9939 113.286 88.9939C113.578 88.9939 113.881 89.032 114.196 89.1082C114.514 89.1844 114.809 89.317 115.081 89.5059C115.353 89.6915 115.573 89.9517 115.742 90.2865C115.911 90.6179 115.996 91.0388 115.996 91.5492V96.7346H115.111V95.5265H115.056C114.95 95.7519 114.793 95.9707 114.584 96.1828C114.375 96.3949 114.113 96.5689 113.798 96.7048C113.484 96.8407 113.114 96.9086 112.69 96.9086ZM112.809 96.0983C113.28 96.0983 113.687 95.9939 114.032 95.785C114.377 95.5762 114.642 95.2995 114.828 94.9548C115.017 94.6068 115.111 94.224 115.111 93.8064V92.7027C115.045 92.7656 114.934 92.822 114.778 92.8717C114.625 92.9214 114.448 92.9662 114.246 93.0059C114.047 93.0424 113.848 93.0739 113.649 93.1004C113.45 93.1269 113.271 93.1501 113.112 93.17C112.682 93.223 112.314 93.3059 112.009 93.4186C111.704 93.5313 111.47 93.687 111.308 93.8859C111.145 94.0814 111.064 94.3333 111.064 94.6416C111.064 95.1056 111.23 95.4652 111.561 95.7204C111.893 95.9723 112.309 96.0983 112.809 96.0983ZM123.481 90.7737L122.67 91.0024C122.591 90.7737 122.478 90.5665 122.332 90.3809C122.186 90.1953 121.996 90.0478 121.76 89.9385C121.528 89.8291 121.24 89.7744 120.895 89.7744C120.378 89.7744 119.954 89.897 119.623 90.1423C119.291 90.3876 119.126 90.7041 119.126 91.0919C119.126 91.42 119.238 91.6868 119.464 91.8923C119.692 92.0945 120.044 92.2552 120.518 92.3745L121.671 92.6579C122.311 92.8137 122.79 93.0606 123.108 93.3987C123.429 93.7367 123.59 94.161 123.59 94.6714C123.59 95.1023 123.471 95.4851 123.232 95.8198C122.993 96.1546 122.66 96.4181 122.233 96.6103C121.809 96.7992 121.316 96.8937 120.756 96.8937C120.01 96.8937 119.396 96.7263 118.912 96.3916C118.428 96.0535 118.118 95.5663 117.982 94.9299L118.832 94.7211C118.942 95.1752 119.155 95.5182 119.474 95.7502C119.795 95.9823 120.218 96.0983 120.741 96.0983C121.328 96.0983 121.797 95.9673 122.148 95.7055C122.5 95.4403 122.675 95.1089 122.675 94.7112C122.675 94.4029 122.573 94.1444 122.367 93.9356C122.162 93.7235 121.85 93.5677 121.432 93.4683L120.184 93.17C119.522 93.0109 119.031 92.759 118.713 92.4143C118.395 92.0696 118.236 91.6421 118.236 91.1316C118.236 90.7107 118.35 90.3412 118.579 90.023C118.807 89.7015 119.122 89.4496 119.523 89.2673C119.924 89.085 120.382 88.9939 120.895 88.9939C121.595 88.9939 122.153 89.1529 122.571 89.4711C122.992 89.786 123.295 90.2202 123.481 90.7737Z" fill="white"/>
<defs>
<clipPath id="clip0_934_3529">
<rect width="237" height="65.7346" fill="white"/>
</clipPath>
</defs>
</svg>
