<svg width="361" height="200" viewBox="0 0 361 200" fill="none" xmlns="http://www.w3.org/2000/svg">
<g clip-path="url(#clip0_514_2144)">
<path d="M243.842 -0.138672L209.847 6.30789C209.847 6.30789 220.508 34.8474 208.841 68.5575C196.504 49.0164 173.841 34.5116 153.257 37.802V6.30789L116.849 6.30789L116.849 192.654H153.257V130.874C160.834 133.762 169.148 135.172 177.73 134.5C180.546 134.299 191.744 132.687 194.157 131.143C207.366 157.936 198.918 193.93 198.918 193.93L238.142 200.041L239.886 179.492H239.819C239.819 179.492 239.886 179.224 239.886 179.089C240.489 159.347 237.673 132.755 227.481 105.76C263.286 54.7243 243.842 -0.138672 243.842 -0.138672ZM158.487 96.6269C152.05 92.1278 148.362 79.2346 158.554 74.064C170.757 67.9532 189.598 87.6286 193.621 101.999C186.916 104.417 165.46 101.529 158.487 96.6269Z" fill="#F78520"/>
<path d="M379.845 200.041L379.711 175.799L374.95 77.3546C374.682 72.9225 373.877 68.4905 372.134 64.3943C366.502 51.2325 356.645 48.1436 351.818 46.1962C330.026 37.3321 311.588 44.6517 290.199 50.091L298.379 80.7793C308.168 75.8101 309.978 75.0714 315.812 73.4598H316.013C327.411 70.3036 339.212 77.4889 341.358 89.1733C341.358 89.2404 341.358 89.3747 341.425 89.4419C295.496 96.2913 231.731 118.921 253.656 170.091C268.608 205.077 321.109 202.055 341.023 172.71C340.956 175.06 340.956 177.142 341.09 178.955L340.821 193.93L379.845 200.041ZM335.659 134.568C305.955 200.108 269.078 152.43 328.954 125.099C332.641 123.353 336.53 122.279 340.218 121.205C339.212 125.704 337.67 130.136 335.659 134.568Z" fill="#F78520"/>
<path d="M102.222 14.0983V46.8011L53.2757 46.8011L53.2757 193.931L12.4422 193.931C14.5878 144.574 18.2085 96.1576 12.4422 46.8011L-40.9297 46.5325L-40.9297 14.0983L102.155 14.0983H102.222Z" fill="#F78520"/>
</g>
<defs>
<clipPath id="clip0_514_2144">
<rect width="429.61" height="200.159" fill="white" transform="translate(-41)"/>
</clipPath>
</defs>
</svg>
