<svg width="358" height="629" viewBox="0 0 358 629" fill="none" xmlns="http://www.w3.org/2000/svg">
<g clip-path="url(#clip0_764_2621)">
<path d="M-0.248023 211.928L11.2822 272.73C11.2822 272.73 62.3272 253.662 122.62 274.529C87.6696 296.595 61.7267 337.129 67.6119 373.946L11.2822 373.946L11.2822 439.065L344.576 439.065L344.576 373.946L234.079 373.946C239.243 360.395 241.766 345.524 240.565 330.174C240.204 325.137 237.322 305.11 234.559 300.792C282.482 277.167 346.858 292.278 346.858 292.278L357.788 222.122L321.036 219.004L321.036 219.124C321.036 219.124 320.555 219.004 320.315 219.004C285.004 217.925 237.442 222.961 189.159 241.19C97.8786 177.15 -0.248023 211.928 -0.248023 211.928ZM172.825 364.592C164.778 376.105 141.717 382.7 132.469 364.472C121.539 342.646 156.731 308.947 182.433 301.752C186.757 313.744 181.592 352.12 172.825 364.592Z" fill="#F78520"/>
<path d="M357.789 -31.3255L314.43 -31.0857L138.355 -22.5711C130.428 -22.0914 122.501 -20.6522 115.174 -17.5342C91.6336 -7.46056 86.1087 10.1683 82.6257 18.8028C66.7717 57.7782 79.8632 90.7574 89.5918 129.013L144.48 114.383C135.592 96.8736 134.271 93.6356 131.389 83.2022L131.389 82.8424C125.744 62.4552 138.595 41.3486 159.494 37.511C159.614 37.511 159.854 37.511 159.974 37.391C172.225 119.539 212.701 233.587 304.221 194.372C366.797 167.629 361.392 73.7282 308.905 38.1106C313.109 38.2306 316.832 38.2305 320.075 37.9907L346.859 38.4704L357.789 -31.3255ZM240.685 47.7045C357.909 100.831 272.633 166.789 223.75 59.697C220.627 53.1011 218.706 46.1455 216.784 39.5497C224.831 41.3485 232.758 44.1068 240.685 47.7045Z" fill="#F78520"/>
<path d="M25.2158 465.226L83.7075 465.226L83.7075 552.771L346.86 552.771L346.86 625.804C258.582 621.967 171.985 615.491 83.7075 625.804L83.2271 721.264L25.2159 721.264L25.2158 465.346L25.2158 465.226Z" fill="#F78520"/>
</g>
<defs>
<clipPath id="clip0_764_2621">
<rect width="768.39" height="358" fill="white" transform="translate(3.35874e-05 721.39) rotate(-90)"/>
</clipPath>
</defs>
</svg>
