<svg width="212" height="188" viewBox="0 0 212 188" fill="none" xmlns="http://www.w3.org/2000/svg">
<path d="M250 302L249.743 255.66L240.634 67.4742C240.12 59.002 238.581 50.5298 235.245 42.6995C224.467 17.5396 205.605 11.6348 196.367 7.91214C154.667 -9.03225 119.382 4.95971 78.4516 15.3574L94.1053 74.0209C112.838 64.5218 116.303 63.1098 127.465 60.029H127.85C149.663 53.9958 172.245 67.731 176.351 90.0668C176.351 90.1951 176.351 90.4519 176.479 90.5802C88.5881 103.674 -33.4333 146.933 8.5236 244.749C37.1364 311.628 137.602 305.851 175.709 249.755C175.581 254.248 175.581 258.227 175.838 261.693L175.325 290.319L250 302ZM165.445 176.843C108.604 302.128 38.0346 210.988 152.614 158.743C159.671 155.405 167.113 153.352 174.17 151.298C172.245 159.898 169.294 168.37 165.445 176.843Z" fill="#F78520"/>
</svg>
