<svg width="946" height="524" viewBox="0 0 946 524" fill="none" xmlns="http://www.w3.org/2000/svg">
<path d="M739.515 329.369C739.515 329.369 633.12 340.212 551.63 293.37C637.503 234.383 692.295 104.482 587.693 27.4955C476.316 -54.6956 347.406 61.1092 356.77 193.829C357.169 202.938 362.15 239.154 366.733 246.961C250.375 285.129 192.993 260.84 192.993 260.84L162.31 389.223L223.278 394.861L223.278 394.645C223.278 394.645 224.075 394.861 224.274 394.861C283.051 396.813 361.951 387.705 441.847 354.959C505.605 405.054 594.865 426.74 670.976 435.198C671.374 435.415 671.773 435.415 671.972 435.415L754.06 441.704L739.515 329.369ZM470.339 142.65C482.094 120.747 520.747 98.6266 536.288 131.59C554.419 171.059 510.187 195.131 467.549 208.142C460.377 186.456 459.58 162.818 470.339 142.65Z" fill="#F8C200"/>
<path d="M231.673 278.342C214.479 306.452 208.99 357.313 208.263 384.812C208.19 387.56 205.96 389.764 203.211 389.764H161.727C161.141 389.764 160.56 389.858 160.024 390.096C154.573 392.518 143.652 401.157 137.685 419.473C118.337 490.325 83.3124 511.027 68.2185 512.522C-7.93721 521.939 6.64215 411.812 23.4513 355.571C32.7135 310.541 58.2359 217.567 86.2283 205.908C113.843 194.406 170.77 238.692 196.837 263.209C197.538 263.868 198.392 264.299 199.337 264.477L228.239 269.934C231.96 270.637 233.649 275.112 231.673 278.342Z" stroke="#48001D" stroke-width="20"/>
<path d="M198.536 263.36L228.24 270.452C231.545 271.241 233.125 275.03 231.537 278.034C217.16 305.241 210.124 344.371 207.905 384.991C207.759 387.661 205.561 389.764 202.888 389.764H163.09C160.614 389.764 158.499 387.959 158.256 385.495C154.465 347.145 171.829 284.06 181.07 257.802C182.205 254.578 186.18 253.597 188.787 255.807L196.465 262.311C197.063 262.818 197.773 263.178 198.536 263.36Z" fill="#48001D" stroke="#48001D"/>
<path d="M140.442 418.647L106.343 403.88C101.186 401.647 98.9219 395.703 101.287 390.604C103.652 385.506 109.75 383.183 114.908 385.417L149.006 400.184L140.442 418.647Z" fill="#48001D"/>
<path d="M130.15 448.06L96.0509 433.293C90.8934 431.06 88.6297 425.116 90.9947 420.017C93.3597 414.919 99.4579 412.596 104.615 414.83L138.714 429.597L130.15 448.06Z" fill="#48001D"/>
<path d="M114.713 476.087L80.6144 461.32C75.4569 459.086 73.1932 453.143 75.5582 448.044C77.9232 442.946 84.0214 440.623 89.1789 442.856L123.278 457.623L114.713 476.087Z" fill="#48001D"/>
<path d="M713.587 438.783C730.781 410.673 736.27 359.812 736.997 332.313C737.069 329.565 739.299 327.361 742.049 327.361H783.533C784.119 327.361 784.699 327.267 785.235 327.029C790.687 324.607 801.608 315.968 807.575 297.652C826.923 226.8 861.947 206.098 877.041 204.603C953.197 195.186 938.618 305.313 921.808 361.554C912.546 406.584 887.024 499.558 859.031 511.217C831.417 522.719 774.49 478.433 748.423 453.916C747.722 453.257 746.868 452.826 745.922 452.648L717.021 447.191C713.3 446.488 711.61 442.013 713.587 438.783Z" stroke="#48001D" stroke-width="20"/>
<path d="M746.724 453.765L717.02 446.673C713.715 445.884 712.135 442.095 713.723 439.091C728.1 411.884 735.136 372.754 737.355 332.134C737.501 329.464 739.699 327.361 742.372 327.361H782.17C784.646 327.361 786.761 329.166 787.004 331.63C790.795 369.98 773.431 433.065 764.19 459.323C763.055 462.547 759.08 463.528 756.473 461.318L748.795 454.814C748.197 454.307 747.487 453.947 746.724 453.765Z" fill="#48001D" stroke="#48001D"/>
<path d="M804.819 298.478L838.918 313.245C844.075 315.478 846.339 321.422 843.974 326.521C841.609 331.619 835.511 333.942 830.353 331.708L796.254 316.941L804.819 298.478Z" fill="#48001D"/>
<path d="M815.111 269.065L849.21 283.832C854.367 286.065 856.631 292.009 854.266 297.108C851.901 302.206 845.803 304.529 840.645 302.295L806.547 287.528L815.111 269.065Z" fill="#48001D"/>
<path d="M830.546 241.038L864.645 255.805C869.803 258.039 872.066 263.982 869.701 269.081C867.336 274.179 861.238 276.502 856.081 274.269L821.982 259.502L830.546 241.038Z" fill="#48001D"/>
</svg>
