<svg width="972" height="621" viewBox="0 0 972 621" fill="none" xmlns="http://www.w3.org/2000/svg">
<path d="M953.237 389.583C953.237 389.583 816.147 402.409 711.147 347.003C821.795 277.232 892.393 123.583 757.614 32.5221C614.106 -64.695 448.006 72.281 460.072 229.265C460.586 240.038 467.004 282.875 472.908 292.11C322.982 337.255 249.046 308.526 249.046 308.526L209.511 460.38L288.068 467.049L288.068 466.793C288.068 466.793 289.095 467.049 289.352 467.049C365.085 469.358 466.747 458.584 569.693 419.852C651.844 479.105 766.856 504.756 864.924 514.76C865.437 515.017 865.951 515.017 866.208 515.017L971.977 522.455L953.237 389.583ZM606.404 168.729C621.551 142.821 671.355 116.657 691.379 155.647C714.741 202.331 657.749 230.804 602.81 246.195C593.568 220.544 592.541 192.584 606.404 168.729Z" fill="#F78520"/>
<path d="M297.971 330.624C276.694 363.887 269.746 422.206 268.741 454.438C268.627 458.08 265.671 461.019 262.026 461.019H208.7C207.982 461.019 207.271 461.125 206.605 461.395C199.595 464.236 185.483 474.452 177.779 496.159C152.85 579.964 107.721 604.452 88.2725 606.22C-9.85364 617.358 8.93179 487.098 30.5902 420.576C42.5245 367.313 75.41 257.341 111.478 243.551C147.052 229.949 220.379 282.307 253.976 311.31C254.895 312.103 255.985 312.614 257.18 312.821L293.369 319.094C298.484 319.98 300.768 326.252 297.971 330.624Z" stroke="#2A3A0E" stroke-width="26.5206"/>
<path d="M256.155 311.5L293.608 319.708C298.167 320.708 300.315 325.99 298.027 330.058C280.043 362.035 271.163 407.497 268.296 454.717C268.082 458.245 265.173 461.019 261.639 461.019H210.6C207.35 461.019 204.561 458.679 204.229 455.446C199.582 410.145 221.712 336.228 233.595 305.157C235.142 301.11 240.119 299.846 243.539 302.506L253.504 310.257C254.284 310.863 255.19 311.288 256.155 311.5Z" fill="#2A3A0E" stroke="#2A3A0E" stroke-width="1.32603"/>
<path d="M181.33 495.183L136.731 477.452C130.452 474.956 127.832 468.044 130.879 462.013V462.013C133.927 455.983 141.487 453.117 147.766 455.614L192.366 473.344L181.33 495.183Z" fill="#2A3A0E"/>
<path d="M168.07 529.973L123.47 512.243C117.192 509.746 114.572 502.834 117.619 496.803V496.803C120.666 490.773 128.227 487.908 134.506 490.404L179.105 508.134L168.07 529.973Z" fill="#2A3A0E"/>
<path d="M148.179 563.124L103.58 545.393C97.301 542.897 94.6813 535.985 97.7286 529.954V529.954C100.776 523.924 108.336 521.058 114.615 523.554L159.215 541.285L148.179 563.124Z" fill="#2A3A0E"/>
</svg>
