<svg width="378" height="443" viewBox="0 0 378 443" fill="none" xmlns="http://www.w3.org/2000/svg">
<path d="M21.5191 297.788C52.4268 266.717 71.6602 201.421 78.5648 166.834C79.1029 164.139 81.6755 162.364 84.383 162.836L143.456 173.137C143.99 173.231 144.533 173.242 145.065 173.136C152.886 171.582 170.075 163.424 182.451 141.489C224.441 57.1139 276.897 39.468 297.877 41.1918C404.137 47.5342 360.069 182.376 324.752 249.005C302.217 303.353 246.932 414.04 206.079 422.006C165.617 429.895 97.0464 360.107 66.933 323.205C66.3543 322.496 65.6144 321.98 64.7528 321.671L23.2987 306.808C19.6139 305.487 18.7585 300.564 21.5191 297.788Z" stroke="#C06616" stroke-width="20"/>
<path d="M65.4808 323.246L23.8723 306.22C20.6148 304.887 19.7072 300.689 21.9919 298.012C48.4082 267.057 67.0372 218.419 79.128 166.745C79.7353 164.149 82.2566 162.465 84.8825 162.923L142.89 173.039C145.305 173.46 147.07 175.555 146.938 178.003C144.233 228.202 104.411 306.778 86.3964 336.325C84.6957 339.114 80.8202 339.418 78.6242 336.999L67.2893 324.513C66.7884 323.961 66.1705 323.528 65.4808 323.246Z" fill="#C06616" stroke="#C06616"/>
<path d="M178.499 141.868L222.576 168.954C228.781 172.767 230.283 180.592 225.93 186.432C221.578 192.271 213.019 193.914 206.814 190.101L162.737 163.015L178.499 141.868Z" fill="#C06616"/>
<path d="M199.022 107.38L243.099 134.466C249.304 138.28 250.806 146.105 246.453 151.944C242.101 157.784 233.542 159.427 227.337 155.613L183.26 128.527L199.022 107.38Z" fill="#C06616"/>
<path d="M226.282 75.8614L270.359 102.948C276.564 106.761 278.066 114.586 273.713 120.425C269.361 126.265 260.802 127.908 254.597 124.094L210.52 97.0083L226.282 75.8614Z" fill="#C06616"/>
</svg>
